<svg xmlns="http://www.w3.org/2000/svg" xmlns:xlink="http://www.w3.org/1999/xlink" version="1.1" shape-rendering="crispEdges" viewBox="0 0 63 63"><rect x="0" y="0" height="63" width="63" fill="#FFF"/><rect x="1" y="1" height="1" width="7" fill="#000"/><rect x="9" y="1" height="1" width="3" fill="#000"/><rect x="15" y="1" height="1" width="3" fill="#000"/><rect x="19" y="1" height="1" width="2" fill="#000"/><rect x="24" y="1" height="1" width="2" fill="#000"/><rect x="27" y="1" height="2" width="2" fill="#000"/><rect x="30" y="1" height="1" width="4" fill="#000"/><rect x="35" y="1" height="1" width="5" fill="#000"/><rect x="42" y="1" height="2" width="2" fill="#000"/><rect x="46" y="1" height="1" width="4" fill="#000"/><rect x="52" y="1" height="3" width="2" fill="#000"/><rect x="55" y="1" height="1" width="7" fill="#000"/><rect x="1" y="2" height="6" width="1" fill="#000"/><rect x="7" y="2" height="6" width="1" fill="#000"/><rect x="10" y="2" height="1" width="2" fill="#000"/><rect x="13" y="2" height="1" width="1" fill="#000"/><rect x="16" y="2" height="3" width="1" fill="#000"/><rect x="19" y="2" height="1" width="1" fill="#000"/><rect x="23" y="2" height="3" width="1" fill="#000"/><rect x="29" y="2" height="1" width="1" fill="#000"/><rect x="31" y="2" height="4" width="2" fill="#000"/><rect x="35" y="2" height="1" width="2" fill="#000"/><rect x="40" y="2" height="1" width="2" fill="#000"/><rect x="44" y="2" height="1" width="2" fill="#000"/><rect x="48" y="2" height="2" width="1" fill="#000"/><rect x="55" y="2" height="6" width="1" fill="#000"/><rect x="61" y="2" height="6" width="1" fill="#000"/><rect x="3" y="3" height="3" width="3" fill="#000"/><rect x="9" y="3" height="2" width="1" fill="#000"/><rect x="11" y="3" height="2" width="2" fill="#000"/><rect x="14" y="3" height="1" width="1" fill="#000"/><rect x="17" y="3" height="1" width="2" fill="#000"/><rect x="21" y="3" height="1" width="1" fill="#000"/><rect x="24" y="3" height="2" width="1" fill="#000"/><rect x="27" y="3" height="1" width="1" fill="#000"/><rect x="30" y="3" height="1" width="1" fill="#000"/><rect x="34" y="3" height="4" width="1" fill="#000"/><rect x="36" y="3" height="1" width="4" fill="#000"/><rect x="45" y="3" height="1" width="3" fill="#000"/><rect x="49" y="3" height="2" width="1" fill="#000"/><rect x="51" y="3" height="7" width="1" fill="#000"/><rect x="57" y="3" height="3" width="3" fill="#000"/><rect x="13" y="4" height="1" width="1" fill="#000"/><rect x="15" y="4" height="5" width="1" fill="#000"/><rect x="17" y="4" height="1" width="1" fill="#000"/><rect x="19" y="4" height="2" width="2" fill="#000"/><rect x="22" y="4" height="2" width="1" fill="#000"/><rect x="25" y="4" height="1" width="1" fill="#000"/><rect x="28" y="4" height="3" width="2" fill="#000"/><rect x="33" y="4" height="6" width="1" fill="#000"/><rect x="35" y="4" height="2" width="1" fill="#000"/><rect x="40" y="4" height="2" width="1" fill="#000"/><rect x="42" y="4" height="1" width="2" fill="#000"/><rect x="46" y="4" height="1" width="2" fill="#000"/><rect x="53" y="4" height="1" width="1" fill="#000"/><rect x="10" y="5" height="2" width="2" fill="#000"/><rect x="14" y="5" height="2" width="1" fill="#000"/><rect x="30" y="5" height="1" width="1" fill="#000"/><rect x="36" y="5" height="1" width="1" fill="#000"/><rect x="38" y="5" height="1" width="2" fill="#000"/><rect x="42" y="5" height="1" width="1" fill="#000"/><rect x="45" y="5" height="1" width="1" fill="#000"/><rect x="50" y="5" height="2" width="1" fill="#000"/><rect x="52" y="5" height="1" width="1" fill="#000"/><rect x="9" y="6" height="5" width="1" fill="#000"/><rect x="13" y="6" height="2" width="1" fill="#000"/><rect x="16" y="6" height="1" width="1" fill="#000"/><rect x="18" y="6" height="1" width="1" fill="#000"/><rect x="21" y="6" height="2" width="1" fill="#000"/><rect x="24" y="6" height="1" width="3" fill="#000"/><rect x="38" y="6" height="1" width="1" fill="#000"/><rect x="41" y="6" height="2" width="1" fill="#000"/><rect x="47" y="6" height="1" width="3" fill="#000"/><rect x="2" y="7" height="1" width="5" fill="#000"/><rect x="11" y="7" height="1" width="1" fill="#000"/><rect x="17" y="7" height="1" width="1" fill="#000"/><rect x="19" y="7" height="1" width="1" fill="#000"/><rect x="23" y="7" height="1" width="1" fill="#000"/><rect x="25" y="7" height="1" width="1" fill="#000"/><rect x="27" y="7" height="1" width="1" fill="#000"/><rect x="29" y="7" height="4" width="1" fill="#000"/><rect x="31" y="7" height="1" width="1" fill="#000"/><rect x="35" y="7" height="1" width="1" fill="#000"/><rect x="37" y="7" height="5" width="1" fill="#000"/><rect x="39" y="7" height="1" width="1" fill="#000"/><rect x="43" y="7" height="2" width="1" fill="#000"/><rect x="45" y="7" height="2" width="1" fill="#000"/><rect x="47" y="7" height="3" width="1" fill="#000"/><rect x="49" y="7" height="1" width="1" fill="#000"/><rect x="53" y="7" height="1" width="1" fill="#000"/><rect x="56" y="7" height="1" width="5" fill="#000"/><rect x="10" y="8" height="4" width="1" fill="#000"/><rect x="14" y="8" height="2" width="1" fill="#000"/><rect x="16" y="8" height="2" width="1" fill="#000"/><rect x="18" y="8" height="1" width="1" fill="#000"/><rect x="22" y="8" height="1" width="1" fill="#000"/><rect x="26" y="8" height="2" width="1" fill="#000"/><rect x="28" y="8" height="3" width="1" fill="#000"/><rect x="34" y="8" height="2" width="1" fill="#000"/><rect x="38" y="8" height="3" width="1" fill="#000"/><rect x="46" y="8" height="1" width="1" fill="#000"/><rect x="50" y="8" height="2" width="1" fill="#000"/><rect x="52" y="8" height="2" width="1" fill="#000"/><rect x="2" y="9" height="1" width="1" fill="#000"/><rect x="4" y="9" height="3" width="1" fill="#000"/><rect x="6" y="9" height="1" width="3" fill="#000"/><rect x="11" y="9" height="1" width="3" fill="#000"/><rect x="20" y="9" height="1" width="2" fill="#000"/><rect x="30" y="9" height="1" width="3" fill="#000"/><rect x="35" y="9" height="1" width="1" fill="#000"/><rect x="39" y="9" height="1" width="3" fill="#000"/><rect x="44" y="9" height="5" width="1" fill="#000"/><rect x="49" y="9" height="2" width="1" fill="#000"/><rect x="53" y="9" height="1" width="4" fill="#000"/><rect x="58" y="9" height="1" width="2" fill="#000"/><rect x="61" y="9" height="1" width="1" fill="#000"/><rect x="3" y="10" height="1" width="1" fill="#000"/><rect x="5" y="10" height="3" width="1" fill="#000"/><rect x="8" y="10" height="3" width="1" fill="#000"/><rect x="13" y="10" height="2" width="1" fill="#000"/><rect x="17" y="10" height="1" width="4" fill="#000"/><rect x="23" y="10" height="1" width="2" fill="#000"/><rect x="27" y="10" height="1" width="1" fill="#000"/><rect x="30" y="10" height="2" width="1" fill="#000"/><rect x="45" y="10" height="1" width="1" fill="#000"/><rect x="54" y="10" height="2" width="1" fill="#000"/><rect x="58" y="10" height="2" width="1" fill="#000"/><rect x="60" y="10" height="5" width="1" fill="#000"/><rect x="6" y="11" height="1" width="2" fill="#000"/><rect x="20" y="11" height="1" width="1" fill="#000"/><rect x="23" y="11" height="4" width="1" fill="#000"/><rect x="25" y="11" height="1" width="2" fill="#000"/><rect x="31" y="11" height="6" width="1" fill="#000"/><rect x="34" y="11" height="1" width="1" fill="#000"/><rect x="41" y="11" height="3" width="1" fill="#000"/><rect x="47" y="11" height="1" width="2" fill="#000"/><rect x="50" y="11" height="4" width="1" fill="#000"/><rect x="53" y="11" height="1" width="1" fill="#000"/><rect x="57" y="11" height="3" width="1" fill="#000"/><rect x="59" y="11" height="1" width="1" fill="#000"/><rect x="61" y="11" height="1" width="1" fill="#000"/><rect x="1" y="12" height="1" width="2" fill="#000"/><rect x="6" y="12" height="1" width="1" fill="#000"/><rect x="14" y="12" height="1" width="2" fill="#000"/><rect x="18" y="12" height="2" width="1" fill="#000"/><rect x="22" y="12" height="1" width="1" fill="#000"/><rect x="24" y="12" height="1" width="2" fill="#000"/><rect x="33" y="12" height="1" width="1" fill="#000"/><rect x="35" y="12" height="1" width="2" fill="#000"/><rect x="40" y="12" height="8" width="1" fill="#000"/><rect x="42" y="12" height="2" width="1" fill="#000"/><rect x="45" y="12" height="3" width="1" fill="#000"/><rect x="47" y="12" height="1" width="1" fill="#000"/><rect x="49" y="12" height="2" width="1" fill="#000"/><rect x="55" y="12" height="1" width="1" fill="#000"/><rect x="7" y="13" height="1" width="1" fill="#000"/><rect x="9" y="13" height="2" width="1" fill="#000"/><rect x="11" y="13" height="1" width="1" fill="#000"/><rect x="14" y="13" height="1" width="1" fill="#000"/><rect x="17" y="13" height="1" width="1" fill="#000"/><rect x="19" y="13" height="1" width="1" fill="#000"/><rect x="24" y="13" height="2" width="1" fill="#000"/><rect x="26" y="13" height="1" width="2" fill="#000"/><rect x="34" y="13" height="1" width="2" fill="#000"/><rect x="37" y="13" height="1" width="1" fill="#000"/><rect x="43" y="13" height="1" width="1" fill="#000"/><rect x="48" y="13" height="3" width="1" fill="#000"/><rect x="51" y="13" height="1" width="1" fill="#000"/><rect x="56" y="13" height="1" width="1" fill="#000"/><rect x="58" y="13" height="1" width="2" fill="#000"/><rect x="61" y="13" height="5" width="1" fill="#000"/><rect x="1" y="14" height="1" width="2" fill="#000"/><rect x="4" y="14" height="2" width="3" fill="#000"/><rect x="12" y="14" height="2" width="2" fill="#000"/><rect x="15" y="14" height="1" width="1" fill="#000"/><rect x="20" y="14" height="1" width="3" fill="#000"/><rect x="30" y="14" height="1" width="1" fill="#000"/><rect x="32" y="14" height="1" width="1" fill="#000"/><rect x="34" y="14" height="1" width="1" fill="#000"/><rect x="38" y="14" height="1" width="2" fill="#000"/><rect x="47" y="14" height="1" width="1" fill="#000"/><rect x="53" y="14" height="2" width="1" fill="#000"/><rect x="59" y="14" height="2" width="1" fill="#000"/><rect x="1" y="15" height="1" width="1" fill="#000"/><rect x="3" y="15" height="1" width="1" fill="#000"/><rect x="7" y="15" height="1" width="2" fill="#000"/><rect x="10" y="15" height="1" width="2" fill="#000"/><rect x="14" y="15" height="3" width="1" fill="#000"/><rect x="17" y="15" height="1" width="2" fill="#000"/><rect x="22" y="15" height="1" width="1" fill="#000"/><rect x="25" y="15" height="1" width="3" fill="#000"/><rect x="29" y="15" height="1" width="1" fill="#000"/><rect x="36" y="15" height="1" width="2" fill="#000"/><rect x="41" y="15" height="1" width="1" fill="#000"/><rect x="44" y="15" height="1" width="1" fill="#000"/><rect x="51" y="15" height="1" width="2" fill="#000"/><rect x="54" y="15" height="1" width="4" fill="#000"/><rect x="4" y="16" height="1" width="1" fill="#000"/><rect x="6" y="16" height="3" width="1" fill="#000"/><rect x="8" y="16" height="1" width="1" fill="#000"/><rect x="10" y="16" height="3" width="1" fill="#000"/><rect x="13" y="16" height="1" width="1" fill="#000"/><rect x="20" y="16" height="1" width="2" fill="#000"/><rect x="23" y="16" height="2" width="1" fill="#000"/><rect x="26" y="16" height="2" width="1" fill="#000"/><rect x="28" y="16" height="1" width="1" fill="#000"/><rect x="34" y="16" height="2" width="3" fill="#000"/><rect x="39" y="16" height="1" width="1" fill="#000"/><rect x="45" y="16" height="1" width="2" fill="#000"/><rect x="49" y="16" height="3" width="1" fill="#000"/><rect x="54" y="16" height="1" width="1" fill="#000"/><rect x="57" y="16" height="3" width="1" fill="#000"/><rect x="2" y="17" height="1" width="2" fill="#000"/><rect x="5" y="17" height="1" width="1" fill="#000"/><rect x="7" y="17" height="1" width="1" fill="#000"/><rect x="17" y="17" height="1" width="2" fill="#000"/><rect x="20" y="17" height="1" width="1" fill="#000"/><rect x="27" y="17" height="2" width="1" fill="#000"/><rect x="29" y="17" height="2" width="2" fill="#000"/><rect x="32" y="17" height="3" width="1" fill="#000"/><rect x="43" y="17" height="1" width="3" fill="#000"/><rect x="47" y="17" height="1" width="2" fill="#000"/><rect x="53" y="17" height="1" width="1" fill="#000"/><rect x="55" y="17" height="1" width="1" fill="#000"/><rect x="58" y="17" height="6" width="1" fill="#000"/><rect x="4" y="18" height="1" width="1" fill="#000"/><rect x="8" y="18" height="1" width="2" fill="#000"/><rect x="13" y="18" height="3" width="1" fill="#000"/><rect x="16" y="18" height="2" width="1" fill="#000"/><rect x="22" y="18" height="2" width="1" fill="#000"/><rect x="25" y="18" height="1" width="1" fill="#000"/><rect x="28" y="18" height="1" width="1" fill="#000"/><rect x="31" y="18" height="2" width="1" fill="#000"/><rect x="37" y="18" height="1" width="1" fill="#000"/><rect x="39" y="18" height="1" width="1" fill="#000"/><rect x="42" y="18" height="1" width="1" fill="#000"/><rect x="48" y="18" height="3" width="1" fill="#000"/><rect x="50" y="18" height="1" width="2" fill="#000"/><rect x="54" y="18" height="2" width="1" fill="#000"/><rect x="56" y="18" height="1" width="1" fill="#000"/><rect x="1" y="19" height="2" width="2" fill="#000"/><rect x="7" y="19" height="1" width="1" fill="#000"/><rect x="11" y="19" height="1" width="2" fill="#000"/><rect x="14" y="19" height="1" width="2" fill="#000"/><rect x="30" y="19" height="1" width="1" fill="#000"/><rect x="33" y="19" height="1" width="2" fill="#000"/><rect x="36" y="19" height="1" width="1" fill="#000"/><rect x="41" y="19" height="1" width="1" fill="#000"/><rect x="45" y="19" height="2" width="1" fill="#000"/><rect x="50" y="19" height="1" width="1" fill="#000"/><rect x="53" y="19" height="1" width="1" fill="#000"/><rect x="55" y="19" height="2" width="1" fill="#000"/><rect x="59" y="19" height="1" width="3" fill="#000"/><rect x="3" y="20" height="1" width="1" fill="#000"/><rect x="6" y="20" height="1" width="1" fill="#000"/><rect x="8" y="20" height="1" width="1" fill="#000"/><rect x="10" y="20" height="1" width="1" fill="#000"/><rect x="17" y="20" height="2" width="1" fill="#000"/><rect x="19" y="20" height="2" width="1" fill="#000"/><rect x="43" y="20" height="1" width="2" fill="#000"/><rect x="46" y="20" height="2" width="1" fill="#000"/><rect x="52" y="20" height="1" width="1" fill="#000"/><rect x="59" y="20" height="3" width="1" fill="#000"/><rect x="2" y="21" height="1" width="1" fill="#000"/><rect x="5" y="21" height="6" width="1" fill="#000"/><rect x="7" y="21" height="1" width="1" fill="#000"/><rect x="9" y="21" height="3" width="1" fill="#000"/><rect x="12" y="21" height="2" width="1" fill="#000"/><rect x="14" y="21" height="3" width="1" fill="#000"/><rect x="16" y="21" height="2" width="1" fill="#000"/><rect x="18" y="21" height="2" width="1" fill="#000"/><rect x="43" y="21" height="1" width="1" fill="#000"/><rect x="49" y="21" height="1" width="2" fill="#000"/><rect x="53" y="21" height="1" width="2" fill="#000"/><rect x="56" y="21" height="1" width="1" fill="#000"/><rect x="61" y="21" height="1" width="1" fill="#000"/><rect x="8" y="22" height="2" width="1" fill="#000"/><rect x="10" y="22" height="1" width="1" fill="#000"/><rect x="15" y="22" height="1" width="1" fill="#000"/><rect x="44" y="22" height="2" width="2" fill="#000"/><rect x="50" y="22" height="1" width="1" fill="#000"/><rect x="53" y="22" height="3" width="1" fill="#000"/><rect x="55" y="22" height="2" width="1" fill="#000"/><rect x="57" y="22" height="4" width="1" fill="#000"/><rect x="2" y="23" height="1" width="3" fill="#000"/><rect x="7" y="23" height="1" width="1" fill="#000"/><rect x="17" y="23" height="3" width="1" fill="#000"/><rect x="19" y="23" height="2" width="1" fill="#000"/><rect x="43" y="23" height="3" width="1" fill="#000"/><rect x="47" y="23" height="1" width="3" fill="#000"/><rect x="51" y="23" height="1" width="1" fill="#000"/><rect x="60" y="23" height="1" width="2" fill="#000"/><rect x="1" y="24" height="1" width="1" fill="#000"/><rect x="3" y="24" height="4" width="1" fill="#000"/><rect x="10" y="24" height="3" width="1" fill="#000"/><rect x="13" y="24" height="1" width="1" fill="#000"/><rect x="16" y="24" height="1" width="1" fill="#000"/><rect x="18" y="24" height="2" width="1" fill="#000"/><rect x="44" y="24" height="1" width="1" fill="#000"/><rect x="46" y="24" height="1" width="1" fill="#000"/><rect x="48" y="24" height="1" width="3" fill="#000"/><rect x="58" y="24" height="3" width="1" fill="#000"/><rect x="2" y="25" height="2" width="1" fill="#000"/><rect x="4" y="25" height="1" width="1" fill="#000"/><rect x="6" y="25" height="1" width="2" fill="#000"/><rect x="45" y="25" height="1" width="1" fill="#000"/><rect x="47" y="25" height="3" width="1" fill="#000"/><rect x="49" y="25" height="2" width="2" fill="#000"/><rect x="56" y="25" height="1" width="1" fill="#000"/><rect x="8" y="26" height="1" width="1" fill="#000"/><rect x="14" y="26" height="1" width="2" fill="#000"/><rect x="19" y="26" height="4" width="1" fill="#000"/><rect x="53" y="26" height="1" width="2" fill="#000"/><rect x="59" y="26" height="2" width="1" fill="#000"/><rect x="1" y="27" height="1" width="1" fill="#000"/><rect x="4" y="27" height="2" width="1" fill="#000"/><rect x="6" y="27" height="1" width="2" fill="#000"/><rect x="12" y="27" height="2" width="1" fill="#000"/><rect x="44" y="27" height="1" width="1" fill="#000"/><rect x="46" y="27" height="6" width="1" fill="#000"/><rect x="51" y="27" height="2" width="1" fill="#000"/><rect x="60" y="27" height="2" width="1" fill="#000"/><rect x="2" y="28" height="1" width="1" fill="#000"/><rect x="9" y="28" height="7" width="1" fill="#000"/><rect x="11" y="28" height="4" width="1" fill="#000"/><rect x="13" y="28" height="1" width="2" fill="#000"/><rect x="17" y="28" height="1" width="1" fill="#000"/><rect x="48" y="28" height="2" width="1" fill="#000"/><rect x="50" y="28" height="4" width="1" fill="#000"/><rect x="53" y="28" height="6" width="1" fill="#000"/><rect x="58" y="28" height="2" width="1" fill="#000"/><rect x="5" y="29" height="1" width="4" fill="#000"/><rect x="13" y="29" height="1" width="1" fill="#000"/><rect x="15" y="29" height="2" width="2" fill="#000"/><rect x="44" y="29" height="1" width="2" fill="#000"/><rect x="49" y="29" height="1" width="1" fill="#000"/><rect x="52" y="29" height="1" width="1" fill="#000"/><rect x="54" y="29" height="1" width="4" fill="#000"/><rect x="59" y="29" height="1" width="1" fill="#000"/><rect x="61" y="29" height="1" width="1" fill="#000"/><rect x="3" y="30" height="2" width="1" fill="#000"/><rect x="5" y="30" height="4" width="1" fill="#000"/><rect x="10" y="30" height="3" width="1" fill="#000"/><rect x="14" y="30" height="1" width="1" fill="#000"/><rect x="17" y="30" height="1" width="2" fill="#000"/><rect x="45" y="30" height="3" width="1" fill="#000"/><rect x="51" y="30" height="1" width="1" fill="#000"/><rect x="57" y="30" height="4" width="1" fill="#000"/><rect x="1" y="31" height="1" width="2" fill="#000"/><rect x="4" y="31" height="1" width="1" fill="#000"/><rect x="7" y="31" height="1" width="1" fill="#000"/><rect x="12" y="31" height="2" width="1" fill="#000"/><rect x="15" y="31" height="7" width="1" fill="#000"/><rect x="47" y="31" height="1" width="1" fill="#000"/><rect x="49" y="31" height="5" width="1" fill="#000"/><rect x="52" y="31" height="2" width="1" fill="#000"/><rect x="55" y="31" height="1" width="1" fill="#000"/><rect x="59" y="31" height="2" width="2" fill="#000"/><rect x="2" y="32" height="1" width="1" fill="#000"/><rect x="18" y="32" height="1" width="1" fill="#000"/><rect x="43" y="32" height="1" width="1" fill="#000"/><rect x="48" y="32" height="1" width="1" fill="#000"/><rect x="61" y="32" height="1" width="1" fill="#000"/><rect x="1" y="33" height="1" width="1" fill="#000"/><rect x="3" y="33" height="2" width="2" fill="#000"/><rect x="6" y="33" height="1" width="3" fill="#000"/><rect x="13" y="33" height="3" width="1" fill="#000"/><rect x="16" y="33" height="1" width="1" fill="#000"/><rect x="19" y="33" height="3" width="1" fill="#000"/><rect x="44" y="33" height="1" width="1" fill="#000"/><rect x="47" y="33" height="1" width="1" fill="#000"/><rect x="50" y="33" height="1" width="1" fill="#000"/><rect x="54" y="33" height="2" width="3" fill="#000"/><rect x="11" y="34" height="1" width="1" fill="#000"/><rect x="14" y="34" height="2" width="1" fill="#000"/><rect x="17" y="34" height="3" width="1" fill="#000"/><rect x="48" y="34" height="1" width="1" fill="#000"/><rect x="52" y="34" height="3" width="1" fill="#000"/><rect x="60" y="34" height="2" width="2" fill="#000"/><rect x="1" y="35" height="1" width="2" fill="#000"/><rect x="7" y="35" height="1" width="1" fill="#000"/><rect x="44" y="35" height="1" width="2" fill="#000"/><rect x="47" y="35" height="1" width="1" fill="#000"/><rect x="50" y="35" height="1" width="1" fill="#000"/><rect x="55" y="35" height="7" width="1" fill="#000"/><rect x="57" y="35" height="1" width="2" fill="#000"/><rect x="2" y="36" height="1" width="1" fill="#000"/><rect x="4" y="36" height="2" width="1" fill="#000"/><rect x="6" y="36" height="1" width="1" fill="#000"/><rect x="11" y="36" height="1" width="2" fill="#000"/><rect x="16" y="36" height="2" width="1" fill="#000"/><rect x="44" y="36" height="2" width="1" fill="#000"/><rect x="46" y="36" height="6" width="1" fill="#000"/><rect x="48" y="36" height="1" width="1" fill="#000"/><rect x="51" y="36" height="1" width="1" fill="#000"/><rect x="53" y="36" height="1" width="2" fill="#000"/><rect x="56" y="36" height="1" width="2" fill="#000"/><rect x="61" y="36" height="1" width="1" fill="#000"/><rect x="5" y="37" height="1" width="1" fill="#000"/><rect x="7" y="37" height="1" width="3" fill="#000"/><rect x="13" y="37" height="2" width="1" fill="#000"/><rect x="43" y="37" height="1" width="1" fill="#000"/><rect x="45" y="37" height="3" width="1" fill="#000"/><rect x="47" y="37" height="2" width="1" fill="#000"/><rect x="49" y="37" height="1" width="2" fill="#000"/><rect x="56" y="37" height="2" width="1" fill="#000"/><rect x="59" y="37" height="2" width="2" fill="#000"/><rect x="9" y="38" height="1" width="1" fill="#000"/><rect x="17" y="38" height="3" width="1" fill="#000"/><rect x="50" y="38" height="1" width="1" fill="#000"/><rect x="53" y="38" height="1" width="2" fill="#000"/><rect x="1" y="39" height="1" width="1" fill="#000"/><rect x="4" y="39" height="1" width="5" fill="#000"/><rect x="10" y="39" height="1" width="2" fill="#000"/><rect x="15" y="39" height="1" width="2" fill="#000"/><rect x="43" y="39" height="1" width="2" fill="#000"/><rect x="48" y="39" height="3" width="2" fill="#000"/><rect x="61" y="39" height="5" width="1" fill="#000"/><rect x="2" y="40" height="1" width="3" fill="#000"/><rect x="6" y="40" height="3" width="1" fill="#000"/><rect x="11" y="40" height="1" width="3" fill="#000"/><rect x="15" y="40" height="2" width="1" fill="#000"/><rect x="18" y="40" height="1" width="2" fill="#000"/><rect x="58" y="40" height="3" width="1" fill="#000"/><rect x="3" y="41" height="1" width="2" fill="#000"/><rect x="7" y="41" height="1" width="2" fill="#000"/><rect x="16" y="41" height="1" width="1" fill="#000"/><rect x="19" y="41" height="3" width="1" fill="#000"/><rect x="45" y="41" height="1" width="1" fill="#000"/><rect x="53" y="41" height="1" width="2" fill="#000"/><rect x="57" y="41" height="3" width="1" fill="#000"/><rect x="59" y="41" height="2" width="1" fill="#000"/><rect x="9" y="42" height="1" width="2" fill="#000"/><rect x="12" y="42" height="1" width="3" fill="#000"/><rect x="17" y="42" height="3" width="1" fill="#000"/><rect x="44" y="42" height="4" width="1" fill="#000"/><rect x="49" y="42" height="2" width="1" fill="#000"/><rect x="51" y="42" height="1" width="2" fill="#000"/><rect x="54" y="42" height="6" width="1" fill="#000"/><rect x="2" y="43" height="1" width="4" fill="#000"/><rect x="7" y="43" height="1" width="2" fill="#000"/><rect x="14" y="43" height="4" width="1" fill="#000"/><rect x="16" y="43" height="1" width="1" fill="#000"/><rect x="18" y="43" height="2" width="1" fill="#000"/><rect x="21" y="43" height="1" width="2" fill="#000"/><rect x="25" y="43" height="1" width="1" fill="#000"/><rect x="31" y="43" height="1" width="6" fill="#000"/><rect x="38" y="43" height="1" width="1" fill="#000"/><rect x="42" y="43" height="2" width="2" fill="#000"/><rect x="45" y="43" height="1" width="2" fill="#000"/><rect x="48" y="43" height="1" width="1" fill="#000"/><rect x="50" y="43" height="2" width="1" fill="#000"/><rect x="52" y="43" height="1" width="1" fill="#000"/><rect x="55" y="43" height="5" width="1" fill="#000"/><rect x="60" y="43" height="1" width="1" fill="#000"/><rect x="1" y="44" height="1" width="3" fill="#000"/><rect x="6" y="44" height="2" width="1" fill="#000"/><rect x="8" y="44" height="1" width="1" fill="#000"/><rect x="10" y="44" height="1" width="4" fill="#000"/><rect x="15" y="44" height="2" width="1" fill="#000"/><rect x="20" y="44" height="3" width="1" fill="#000"/><rect x="22" y="44" height="4" width="1" fill="#000"/><rect x="27" y="44" height="1" width="1" fill="#000"/><rect x="29" y="44" height="1" width="3" fill="#000"/><rect x="36" y="44" height="1" width="1" fill="#000"/><rect x="46" y="44" height="2" width="1" fill="#000"/><rect x="51" y="44" height="2" width="1" fill="#000"/><rect x="53" y="44" height="2" width="1" fill="#000"/><rect x="59" y="44" height="2" width="1" fill="#000"/><rect x="1" y="45" height="2" width="1" fill="#000"/><rect x="3" y="45" height="4" width="1" fill="#000"/><rect x="7" y="45" height="1" width="1" fill="#000"/><rect x="10" y="45" height="2" width="2" fill="#000"/><rect x="13" y="45" height="3" width="1" fill="#000"/><rect x="16" y="45" height="3" width="1" fill="#000"/><rect x="19" y="45" height="1" width="1" fill="#000"/><rect x="21" y="45" height="2" width="1" fill="#000"/><rect x="23" y="45" height="1" width="2" fill="#000"/><rect x="28" y="45" height="2" width="1" fill="#000"/><rect x="35" y="45" height="3" width="1" fill="#000"/><rect x="38" y="45" height="2" width="1" fill="#000"/><rect x="41" y="45" height="1" width="2" fill="#000"/><rect x="47" y="45" height="1" width="1" fill="#000"/><rect x="49" y="45" height="1" width="1" fill="#000"/><rect x="56" y="45" height="1" width="3" fill="#000"/><rect x="60" y="45" height="1" width="2" fill="#000"/><rect x="4" y="46" height="1" width="1" fill="#000"/><rect x="12" y="46" height="3" width="1" fill="#000"/><rect x="18" y="46" height="1" width="1" fill="#000"/><rect x="26" y="46" height="1" width="2" fill="#000"/><rect x="29" y="46" height="5" width="1" fill="#000"/><rect x="33" y="46" height="1" width="2" fill="#000"/><rect x="36" y="46" height="1" width="2" fill="#000"/><rect x="45" y="46" height="1" width="1" fill="#000"/><rect x="52" y="46" height="2" width="1" fill="#000"/><rect x="58" y="46" height="2" width="1" fill="#000"/><rect x="60" y="46" height="2" width="1" fill="#000"/><rect x="2" y="47" height="3" width="1" fill="#000"/><rect x="5" y="47" height="1" width="5" fill="#000"/><rect x="11" y="47" height="1" width="1" fill="#000"/><rect x="15" y="47" height="2" width="1" fill="#000"/><rect x="24" y="47" height="1" width="2" fill="#000"/><rect x="27" y="47" height="1" width="1" fill="#000"/><rect x="36" y="47" height="1" width="1" fill="#000"/><rect x="39" y="47" height="3" width="1" fill="#000"/><rect x="42" y="47" height="4" width="1" fill="#000"/><rect x="49" y="47" height="8" width="1" fill="#000"/><rect x="57" y="47" height="1" width="1" fill="#000"/><rect x="61" y="47" height="5" width="1" fill="#000"/><rect x="18" y="48" height="3" width="1" fill="#000"/><rect x="21" y="48" height="2" width="1" fill="#000"/><rect x="23" y="48" height="1" width="1" fill="#000"/><rect x="25" y="48" height="1" width="2" fill="#000"/><rect x="28" y="48" height="1" width="1" fill="#000"/><rect x="31" y="48" height="1" width="1" fill="#000"/><rect x="33" y="48" height="1" width="2" fill="#000"/><rect x="38" y="48" height="3" width="1" fill="#000"/><rect x="43" y="48" height="2" width="1" fill="#000"/><rect x="47" y="48" height="4" width="1" fill="#000"/><rect x="50" y="48" height="2" width="2" fill="#000"/><rect x="53" y="48" height="1" width="1" fill="#000"/><rect x="56" y="48" height="1" width="1" fill="#000"/><rect x="1" y="49" height="2" width="1" fill="#000"/><rect x="6" y="49" height="1" width="3" fill="#000"/><rect x="13" y="49" height="1" width="2" fill="#000"/><rect x="17" y="49" height="5" width="1" fill="#000"/><rect x="19" y="49" height="1" width="1" fill="#000"/><rect x="22" y="49" height="1" width="1" fill="#000"/><rect x="25" y="49" height="3" width="1" fill="#000"/><rect x="32" y="49" height="3" width="1" fill="#000"/><rect x="35" y="49" height="2" width="1" fill="#000"/><rect x="37" y="49" height="1" width="1" fill="#000"/><rect x="40" y="49" height="2" width="2" fill="#000"/><rect x="45" y="49" height="1" width="1" fill="#000"/><rect x="48" y="49" height="1" width="1" fill="#000"/><rect x="54" y="49" height="2" width="1" fill="#000"/><rect x="58" y="49" height="1" width="1" fill="#000"/><rect x="5" y="50" height="2" width="2" fill="#000"/><rect x="8" y="50" height="2" width="1" fill="#000"/><rect x="10" y="50" height="1" width="3" fill="#000"/><rect x="14" y="50" height="1" width="3" fill="#000"/><rect x="20" y="50" height="1" width="1" fill="#000"/><rect x="23" y="50" height="5" width="1" fill="#000"/><rect x="27" y="50" height="1" width="1" fill="#000"/><rect x="30" y="50" height="1" width="2" fill="#000"/><rect x="33" y="50" height="1" width="1" fill="#000"/><rect x="44" y="50" height="2" width="1" fill="#000"/><rect x="52" y="50" height="1" width="2" fill="#000"/><rect x="55" y="50" height="1" width="2" fill="#000"/><rect x="60" y="50" height="1" width="1" fill="#000"/><rect x="3" y="51" height="1" width="2" fill="#000"/><rect x="7" y="51" height="1" width="1" fill="#000"/><rect x="10" y="51" height="1" width="1" fill="#000"/><rect x="12" y="51" height="1" width="1" fill="#000"/><rect x="19" y="51" height="3" width="1" fill="#000"/><rect x="21" y="51" height="1" width="1" fill="#000"/><rect x="24" y="51" height="1" width="1" fill="#000"/><rect x="31" y="51" height="1" width="1" fill="#000"/><rect x="34" y="51" height="1" width="1" fill="#000"/><rect x="39" y="51" height="2" width="1" fill="#000"/><rect x="41" y="51" height="1" width="1" fill="#000"/><rect x="46" y="51" height="2" width="1" fill="#000"/><rect x="48" y="51" height="4" width="1" fill="#000"/><rect x="50" y="51" height="1" width="2" fill="#000"/><rect x="53" y="51" height="7" width="1" fill="#000"/><rect x="55" y="51" height="1" width="1" fill="#000"/><rect x="57" y="51" height="1" width="1" fill="#000"/><rect x="1" y="52" height="2" width="3" fill="#000"/><rect x="5" y="52" height="1" width="1" fill="#000"/><rect x="13" y="52" height="3" width="2" fill="#000"/><rect x="18" y="52" height="1" width="1" fill="#000"/><rect x="20" y="52" height="1" width="1" fill="#000"/><rect x="26" y="52" height="2" width="2" fill="#000"/><rect x="29" y="52" height="2" width="2" fill="#000"/><rect x="33" y="52" height="6" width="1" fill="#000"/><rect x="35" y="52" height="1" width="1" fill="#000"/><rect x="40" y="52" height="6" width="1" fill="#000"/><rect x="42" y="52" height="2" width="1" fill="#000"/><rect x="45" y="52" height="3" width="1" fill="#000"/><rect x="51" y="52" height="1" width="1" fill="#000"/><rect x="59" y="52" height="1" width="1" fill="#000"/><rect x="4" y="53" height="1" width="1" fill="#000"/><rect x="7" y="53" height="1" width="1" fill="#000"/><rect x="9" y="53" height="1" width="4" fill="#000"/><rect x="16" y="53" height="4" width="1" fill="#000"/><rect x="21" y="53" height="1" width="2" fill="#000"/><rect x="25" y="53" height="2" width="1" fill="#000"/><rect x="28" y="53" height="2" width="1" fill="#000"/><rect x="31" y="53" height="1" width="2" fill="#000"/><rect x="34" y="53" height="2" width="1" fill="#000"/><rect x="36" y="53" height="2" width="2" fill="#000"/><rect x="41" y="53" height="2" width="1" fill="#000"/><rect x="43" y="53" height="1" width="2" fill="#000"/><rect x="47" y="53" height="1" width="1" fill="#000"/><rect x="50" y="53" height="1" width="1" fill="#000"/><rect x="54" y="53" height="1" width="4" fill="#000"/><rect x="9" y="54" height="3" width="1" fill="#000"/><rect x="11" y="54" height="1" width="1" fill="#000"/><rect x="15" y="54" height="2" width="1" fill="#000"/><rect x="20" y="54" height="2" width="1" fill="#000"/><rect x="22" y="54" height="3" width="1" fill="#000"/><rect x="24" y="54" height="1" width="1" fill="#000"/><rect x="26" y="54" height="2" width="1" fill="#000"/><rect x="29" y="54" height="4" width="1" fill="#000"/><rect x="35" y="54" height="1" width="1" fill="#000"/><rect x="39" y="54" height="3" width="1" fill="#000"/><rect x="44" y="54" height="1" width="1" fill="#000"/><rect x="52" y="54" height="2" width="1" fill="#000"/><rect x="57" y="54" height="2" width="2" fill="#000"/><rect x="60" y="54" height="5" width="1" fill="#000"/><rect x="1" y="55" height="1" width="7" fill="#000"/><rect x="18" y="55" height="2" width="1" fill="#000"/><rect x="31" y="55" height="1" width="1" fill="#000"/><rect x="38" y="55" height="2" width="1" fill="#000"/><rect x="42" y="55" height="2" width="1" fill="#000"/><rect x="47" y="55" height="2" width="1" fill="#000"/><rect x="51" y="55" height="1" width="1" fill="#000"/><rect x="55" y="55" height="1" width="1" fill="#000"/><rect x="59" y="55" height="3" width="1" fill="#000"/><rect x="61" y="55" height="1" width="1" fill="#000"/><rect x="1" y="56" height="6" width="1" fill="#000"/><rect x="7" y="56" height="6" width="1" fill="#000"/><rect x="10" y="56" height="3" width="2" fill="#000"/><rect x="13" y="56" height="1" width="2" fill="#000"/><rect x="21" y="56" height="3" width="1" fill="#000"/><rect x="37" y="56" height="2" width="1" fill="#000"/><rect x="43" y="56" height="1" width="2" fill="#000"/><rect x="48" y="56" height="1" width="3" fill="#000"/><rect x="57" y="56" height="5" width="1" fill="#000"/><rect x="3" y="57" height="3" width="3" fill="#000"/><rect x="13" y="57" height="2" width="1" fill="#000"/><rect x="19" y="57" height="4" width="1" fill="#000"/><rect x="23" y="57" height="1" width="3" fill="#000"/><rect x="27" y="57" height="1" width="2" fill="#000"/><rect x="30" y="57" height="1" width="3" fill="#000"/><rect x="35" y="57" height="1" width="1" fill="#000"/><rect x="41" y="57" height="1" width="1" fill="#000"/><rect x="44" y="57" height="2" width="1" fill="#000"/><rect x="49" y="57" height="1" width="3" fill="#000"/><rect x="54" y="57" height="1" width="3" fill="#000"/><rect x="61" y="57" height="1" width="1" fill="#000"/><rect x="9" y="58" height="1" width="1" fill="#000"/><rect x="14" y="58" height="1" width="5" fill="#000"/><rect x="22" y="58" height="4" width="1" fill="#000"/><rect x="24" y="58" height="1" width="1" fill="#000"/><rect x="26" y="58" height="1" width="1" fill="#000"/><rect x="28" y="58" height="4" width="1" fill="#000"/><rect x="34" y="58" height="3" width="1" fill="#000"/><rect x="36" y="58" height="1" width="1" fill="#000"/><rect x="54" y="58" height="1" width="1" fill="#000"/><rect x="56" y="58" height="1" width="1" fill="#000"/><rect x="10" y="59" height="1" width="1" fill="#000"/><rect x="15" y="59" height="1" width="4" fill="#000"/><rect x="23" y="59" height="2" width="1" fill="#000"/><rect x="25" y="59" height="1" width="1" fill="#000"/><rect x="29" y="59" height="1" width="1" fill="#000"/><rect x="31" y="59" height="3" width="1" fill="#000"/><rect x="35" y="59" height="3" width="1" fill="#000"/><rect x="37" y="59" height="1" width="1" fill="#000"/><rect x="41" y="59" height="1" width="1" fill="#000"/><rect x="45" y="59" height="1" width="3" fill="#000"/><rect x="49" y="59" height="1" width="2" fill="#000"/><rect x="55" y="59" height="1" width="1" fill="#000"/><rect x="58" y="59" height="1" width="2" fill="#000"/><rect x="61" y="59" height="1" width="1" fill="#000"/><rect x="9" y="60" height="1" width="1" fill="#000"/><rect x="12" y="60" height="2" width="2" fill="#000"/><rect x="17" y="60" height="2" width="1" fill="#000"/><rect x="27" y="60" height="2" width="1" fill="#000"/><rect x="30" y="60" height="2" width="1" fill="#000"/><rect x="33" y="60" height="1" width="1" fill="#000"/><rect x="39" y="60" height="1" width="1" fill="#000"/><rect x="42" y="60" height="1" width="4" fill="#000"/><rect x="47" y="60" height="1" width="2" fill="#000"/><rect x="50" y="60" height="2" width="2" fill="#000"/><rect x="54" y="60" height="1" width="1" fill="#000"/><rect x="56" y="60" height="2" width="1" fill="#000"/><rect x="2" y="61" height="1" width="5" fill="#000"/><rect x="11" y="61" height="1" width="1" fill="#000"/><rect x="16" y="61" height="1" width="1" fill="#000"/><rect x="20" y="61" height="1" width="1" fill="#000"/><rect x="24" y="61" height="1" width="2" fill="#000"/><rect x="29" y="61" height="1" width="1" fill="#000"/><rect x="32" y="61" height="1" width="1" fill="#000"/><rect x="36" y="61" height="1" width="3" fill="#000"/><rect x="40" y="61" height="1" width="5" fill="#000"/><rect x="48" y="61" height="1" width="2" fill="#000"/><rect x="53" y="61" height="1" width="1" fill="#000"/><rect x="58" y="61" height="1" width="4" fill="#000"/><image xlink:href="kimi.png" x="21" y="21" width="21" height="21"/></svg>