<svg xmlns="http://www.w3.org/2000/svg" xmlns:xlink="http://www.w3.org/1999/xlink" version="1.1" shape-rendering="crispEdges" viewBox="0 0 63 63"><rect x="0" y="0" height="63" width="63" fill="#FFF"/><rect x="1" y="1" height="1" width="7" fill="#000"/><rect x="9" y="1" height="5" width="1" fill="#000"/><rect x="12" y="1" height="1" width="1" fill="#000"/><rect x="15" y="1" height="1" width="1" fill="#000"/><rect x="24" y="1" height="1" width="2" fill="#000"/><rect x="28" y="1" height="1" width="2" fill="#000"/><rect x="32" y="1" height="2" width="2" fill="#000"/><rect x="35" y="1" height="1" width="3" fill="#000"/><rect x="39" y="1" height="2" width="1" fill="#000"/><rect x="41" y="1" height="1" width="8" fill="#000"/><rect x="50" y="1" height="1" width="1" fill="#000"/><rect x="52" y="1" height="3" width="2" fill="#000"/><rect x="55" y="1" height="1" width="7" fill="#000"/><rect x="1" y="2" height="6" width="1" fill="#000"/><rect x="7" y="2" height="6" width="1" fill="#000"/><rect x="10" y="2" height="1" width="2" fill="#000"/><rect x="17" y="2" height="1" width="3" fill="#000"/><rect x="21" y="2" height="1" width="3" fill="#000"/><rect x="26" y="2" height="1" width="1" fill="#000"/><rect x="29" y="2" height="8" width="1" fill="#000"/><rect x="31" y="2" height="4" width="1" fill="#000"/><rect x="36" y="2" height="2" width="1" fill="#000"/><rect x="40" y="2" height="1" width="5" fill="#000"/><rect x="46" y="2" height="1" width="1" fill="#000"/><rect x="48" y="2" height="1" width="2" fill="#000"/><rect x="55" y="2" height="6" width="1" fill="#000"/><rect x="61" y="2" height="6" width="1" fill="#000"/><rect x="3" y="3" height="3" width="3" fill="#000"/><rect x="10" y="3" height="1" width="1" fill="#000"/><rect x="12" y="3" height="3" width="1" fill="#000"/><rect x="15" y="3" height="2" width="1" fill="#000"/><rect x="21" y="3" height="2" width="1" fill="#000"/><rect x="23" y="3" height="2" width="1" fill="#000"/><rect x="27" y="3" height="7" width="1" fill="#000"/><rect x="32" y="3" height="3" width="1" fill="#000"/><rect x="34" y="3" height="4" width="1" fill="#000"/><rect x="38" y="3" height="1" width="1" fill="#000"/><rect x="42" y="3" height="4" width="1" fill="#000"/><rect x="44" y="3" height="1" width="1" fill="#000"/><rect x="49" y="3" height="2" width="1" fill="#000"/><rect x="51" y="3" height="5" width="1" fill="#000"/><rect x="57" y="3" height="3" width="3" fill="#000"/><rect x="11" y="4" height="1" width="1" fill="#000"/><rect x="13" y="4" height="2" width="2" fill="#000"/><rect x="16" y="4" height="1" width="5" fill="#000"/><rect x="22" y="4" height="3" width="1" fill="#000"/><rect x="24" y="4" height="1" width="3" fill="#000"/><rect x="30" y="4" height="2" width="1" fill="#000"/><rect x="35" y="4" height="1" width="1" fill="#000"/><rect x="40" y="4" height="2" width="1" fill="#000"/><rect x="43" y="4" height="1" width="1" fill="#000"/><rect x="50" y="4" height="2" width="1" fill="#000"/><rect x="53" y="4" height="1" width="1" fill="#000"/><rect x="10" y="5" height="1" width="1" fill="#000"/><rect x="18" y="5" height="1" width="1" fill="#000"/><rect x="20" y="5" height="2" width="1" fill="#000"/><rect x="26" y="5" height="1" width="1" fill="#000"/><rect x="28" y="5" height="2" width="1" fill="#000"/><rect x="33" y="5" height="5" width="1" fill="#000"/><rect x="37" y="5" height="5" width="1" fill="#000"/><rect x="39" y="5" height="3" width="1" fill="#000"/><rect x="41" y="5" height="5" width="1" fill="#000"/><rect x="45" y="5" height="1" width="1" fill="#000"/><rect x="47" y="5" height="4" width="1" fill="#000"/><rect x="52" y="5" height="1" width="1" fill="#000"/><rect x="11" y="6" height="2" width="1" fill="#000"/><rect x="13" y="6" height="6" width="1" fill="#000"/><rect x="15" y="6" height="2" width="1" fill="#000"/><rect x="17" y="6" height="3" width="1" fill="#000"/><rect x="21" y="6" height="2" width="1" fill="#000"/><rect x="25" y="6" height="3" width="1" fill="#000"/><rect x="36" y="6" height="1" width="1" fill="#000"/><rect x="38" y="6" height="1" width="1" fill="#000"/><rect x="49" y="6" height="2" width="1" fill="#000"/><rect x="2" y="7" height="1" width="5" fill="#000"/><rect x="9" y="7" height="2" width="1" fill="#000"/><rect x="19" y="7" height="1" width="1" fill="#000"/><rect x="23" y="7" height="5" width="1" fill="#000"/><rect x="31" y="7" height="1" width="1" fill="#000"/><rect x="35" y="7" height="2" width="1" fill="#000"/><rect x="43" y="7" height="1" width="1" fill="#000"/><rect x="45" y="7" height="3" width="1" fill="#000"/><rect x="53" y="7" height="1" width="1" fill="#000"/><rect x="56" y="7" height="1" width="5" fill="#000"/><rect x="14" y="8" height="2" width="1" fill="#000"/><rect x="16" y="8" height="1" width="1" fill="#000"/><rect x="18" y="8" height="3" width="1" fill="#000"/><rect x="20" y="8" height="2" width="1" fill="#000"/><rect x="26" y="8" height="2" width="1" fill="#000"/><rect x="34" y="8" height="2" width="1" fill="#000"/><rect x="36" y="8" height="2" width="1" fill="#000"/><rect x="40" y="8" height="3" width="1" fill="#000"/><rect x="42" y="8" height="1" width="1" fill="#000"/><rect x="44" y="8" height="2" width="1" fill="#000"/><rect x="48" y="8" height="7" width="1" fill="#000"/><rect x="2" y="9" height="1" width="2" fill="#000"/><rect x="5" y="9" height="2" width="1" fill="#000"/><rect x="7" y="9" height="1" width="2" fill="#000"/><rect x="10" y="9" height="1" width="1" fill="#000"/><rect x="15" y="9" height="3" width="1" fill="#000"/><rect x="21" y="9" height="1" width="1" fill="#000"/><rect x="24" y="9" height="2" width="1" fill="#000"/><rect x="28" y="9" height="2" width="1" fill="#000"/><rect x="30" y="9" height="1" width="3" fill="#000"/><rect x="38" y="9" height="3" width="1" fill="#000"/><rect x="43" y="9" height="1" width="1" fill="#000"/><rect x="49" y="9" height="2" width="1" fill="#000"/><rect x="51" y="9" height="1" width="1" fill="#000"/><rect x="53" y="9" height="1" width="1" fill="#000"/><rect x="55" y="9" height="1" width="1" fill="#000"/><rect x="57" y="9" height="1" width="5" fill="#000"/><rect x="1" y="10" height="3" width="2" fill="#000"/><rect x="4" y="10" height="2" width="1" fill="#000"/><rect x="6" y="10" height="2" width="1" fill="#000"/><rect x="11" y="10" height="1" width="1" fill="#000"/><rect x="16" y="10" height="2" width="1" fill="#000"/><rect x="19" y="10" height="1" width="1" fill="#000"/><rect x="25" y="10" height="6" width="1" fill="#000"/><rect x="35" y="10" height="1" width="1" fill="#000"/><rect x="56" y="10" height="1" width="3" fill="#000"/><rect x="60" y="10" height="3" width="1" fill="#000"/><rect x="7" y="11" height="1" width="2" fill="#000"/><rect x="14" y="11" height="2" width="1" fill="#000"/><rect x="17" y="11" height="1" width="1" fill="#000"/><rect x="22" y="11" height="2" width="1" fill="#000"/><rect x="29" y="11" height="1" width="1" fill="#000"/><rect x="31" y="11" height="1" width="2" fill="#000"/><rect x="34" y="11" height="3" width="1" fill="#000"/><rect x="36" y="11" height="1" width="2" fill="#000"/><rect x="42" y="11" height="1" width="2" fill="#000"/><rect x="51" y="11" height="1" width="2" fill="#000"/><rect x="55" y="11" height="1" width="1" fill="#000"/><rect x="57" y="11" height="3" width="1" fill="#000"/><rect x="61" y="11" height="1" width="1" fill="#000"/><rect x="3" y="12" height="3" width="1" fill="#000"/><rect x="5" y="12" height="1" width="1" fill="#000"/><rect x="9" y="12" height="1" width="1" fill="#000"/><rect x="12" y="12" height="2" width="1" fill="#000"/><rect x="18" y="12" height="3" width="2" fill="#000"/><rect x="21" y="12" height="2" width="1" fill="#000"/><rect x="27" y="12" height="2" width="1" fill="#000"/><rect x="31" y="12" height="1" width="1" fill="#000"/><rect x="39" y="12" height="1" width="1" fill="#000"/><rect x="43" y="12" height="2" width="2" fill="#000"/><rect x="46" y="12" height="2" width="1" fill="#000"/><rect x="50" y="12" height="1" width="1" fill="#000"/><rect x="53" y="12" height="1" width="2" fill="#000"/><rect x="58" y="12" height="1" width="1" fill="#000"/><rect x="1" y="13" height="1" width="1" fill="#000"/><rect x="7" y="13" height="1" width="2" fill="#000"/><rect x="10" y="13" height="1" width="1" fill="#000"/><rect x="16" y="13" height="4" width="1" fill="#000"/><rect x="20" y="13" height="2" width="1" fill="#000"/><rect x="23" y="13" height="1" width="1" fill="#000"/><rect x="30" y="13" height="2" width="1" fill="#000"/><rect x="35" y="13" height="1" width="1" fill="#000"/><rect x="37" y="13" height="1" width="1" fill="#000"/><rect x="40" y="13" height="1" width="2" fill="#000"/><rect x="45" y="13" height="1" width="1" fill="#000"/><rect x="47" y="13" height="1" width="1" fill="#000"/><rect x="49" y="13" height="13" width="1" fill="#000"/><rect x="52" y="13" height="2" width="1" fill="#000"/><rect x="54" y="13" height="1" width="1" fill="#000"/><rect x="56" y="13" height="1" width="1" fill="#000"/><rect x="2" y="14" height="1" width="1" fill="#000"/><rect x="4" y="14" height="1" width="2" fill="#000"/><rect x="11" y="14" height="1" width="1" fill="#000"/><rect x="15" y="14" height="2" width="1" fill="#000"/><rect x="17" y="14" height="1" width="1" fill="#000"/><rect x="22" y="14" height="1" width="1" fill="#000"/><rect x="26" y="14" height="6" width="1" fill="#000"/><rect x="29" y="14" height="6" width="1" fill="#000"/><rect x="39" y="14" height="3" width="1" fill="#000"/><rect x="50" y="14" height="3" width="1" fill="#000"/><rect x="58" y="14" height="2" width="1" fill="#000"/><rect x="61" y="14" height="3" width="1" fill="#000"/><rect x="1" y="15" height="1" width="1" fill="#000"/><rect x="4" y="15" height="5" width="1" fill="#000"/><rect x="7" y="15" height="1" width="3" fill="#000"/><rect x="12" y="15" height="2" width="3" fill="#000"/><rect x="18" y="15" height="3" width="1" fill="#000"/><rect x="21" y="15" height="1" width="1" fill="#000"/><rect x="32" y="15" height="1" width="2" fill="#000"/><rect x="35" y="15" height="1" width="1" fill="#000"/><rect x="37" y="15" height="1" width="1" fill="#000"/><rect x="40" y="15" height="3" width="2" fill="#000"/><rect x="47" y="15" height="1" width="1" fill="#000"/><rect x="54" y="15" height="1" width="3" fill="#000"/><rect x="59" y="15" height="1" width="2" fill="#000"/><rect x="3" y="16" height="1" width="1" fill="#000"/><rect x="5" y="16" height="1" width="2" fill="#000"/><rect x="11" y="16" height="1" width="1" fill="#000"/><rect x="17" y="16" height="1" width="1" fill="#000"/><rect x="22" y="16" height="1" width="3" fill="#000"/><rect x="27" y="16" height="1" width="1" fill="#000"/><rect x="30" y="16" height="1" width="1" fill="#000"/><rect x="32" y="16" height="3" width="1" fill="#000"/><rect x="36" y="16" height="4" width="1" fill="#000"/><rect x="38" y="16" height="1" width="1" fill="#000"/><rect x="44" y="16" height="6" width="1" fill="#000"/><rect x="46" y="16" height="2" width="1" fill="#000"/><rect x="48" y="16" height="2" width="1" fill="#000"/><rect x="51" y="16" height="1" width="3" fill="#000"/><rect x="56" y="16" height="4" width="1" fill="#000"/><rect x="5" y="17" height="4" width="1" fill="#000"/><rect x="7" y="17" height="1" width="3" fill="#000"/><rect x="13" y="17" height="2" width="1" fill="#000"/><rect x="24" y="17" height="3" width="1" fill="#000"/><rect x="28" y="17" height="3" width="1" fill="#000"/><rect x="31" y="17" height="2" width="1" fill="#000"/><rect x="42" y="17" height="1" width="1" fill="#000"/><rect x="45" y="17" height="1" width="1" fill="#000"/><rect x="47" y="17" height="1" width="1" fill="#000"/><rect x="55" y="17" height="1" width="1" fill="#000"/><rect x="57" y="17" height="1" width="1" fill="#000"/><rect x="59" y="17" height="1" width="1" fill="#000"/><rect x="3" y="18" height="3" width="1" fill="#000"/><rect x="6" y="18" height="1" width="1" fill="#000"/><rect x="8" y="18" height="1" width="2" fill="#000"/><rect x="12" y="18" height="3" width="1" fill="#000"/><rect x="15" y="18" height="1" width="2" fill="#000"/><rect x="21" y="18" height="1" width="1" fill="#000"/><rect x="25" y="18" height="1" width="1" fill="#000"/><rect x="33" y="18" height="1" width="3" fill="#000"/><rect x="37" y="18" height="1" width="1" fill="#000"/><rect x="54" y="18" height="2" width="1" fill="#000"/><rect x="58" y="18" height="5" width="1" fill="#000"/><rect x="60" y="18" height="3" width="1" fill="#000"/><rect x="1" y="19" height="1" width="2" fill="#000"/><rect x="7" y="19" height="1" width="1" fill="#000"/><rect x="14" y="19" height="1" width="1" fill="#000"/><rect x="16" y="19" height="1" width="1" fill="#000"/><rect x="18" y="19" height="1" width="3" fill="#000"/><rect x="33" y="19" height="1" width="2" fill="#000"/><rect x="38" y="19" height="1" width="4" fill="#000"/><rect x="43" y="19" height="1" width="1" fill="#000"/><rect x="45" y="19" height="1" width="2" fill="#000"/><rect x="48" y="19" height="1" width="1" fill="#000"/><rect x="57" y="19" height="4" width="1" fill="#000"/><rect x="59" y="19" height="1" width="1" fill="#000"/><rect x="61" y="19" height="1" width="1" fill="#000"/><rect x="2" y="20" height="4" width="1" fill="#000"/><rect x="13" y="20" height="3" width="1" fill="#000"/><rect x="15" y="20" height="4" width="1" fill="#000"/><rect x="19" y="20" height="1" width="1" fill="#000"/><rect x="50" y="20" height="4" width="1" fill="#000"/><rect x="52" y="20" height="1" width="1" fill="#000"/><rect x="55" y="20" height="1" width="1" fill="#000"/><rect x="4" y="21" height="1" width="1" fill="#000"/><rect x="7" y="21" height="1" width="1" fill="#000"/><rect x="10" y="21" height="2" width="1" fill="#000"/><rect x="14" y="21" height="4" width="1" fill="#000"/><rect x="16" y="21" height="1" width="3" fill="#000"/><rect x="43" y="21" height="1" width="1" fill="#000"/><rect x="45" y="21" height="2" width="1" fill="#000"/><rect x="47" y="21" height="1" width="1" fill="#000"/><rect x="51" y="21" height="1" width="1" fill="#000"/><rect x="53" y="21" height="2" width="1" fill="#000"/><rect x="59" y="21" height="3" width="1" fill="#000"/><rect x="61" y="21" height="3" width="1" fill="#000"/><rect x="3" y="22" height="2" width="1" fill="#000"/><rect x="8" y="22" height="1" width="2" fill="#000"/><rect x="11" y="22" height="1" width="2" fill="#000"/><rect x="18" y="22" height="1" width="1" fill="#000"/><rect x="48" y="22" height="1" width="1" fill="#000"/><rect x="55" y="22" height="1" width="2" fill="#000"/><rect x="4" y="23" height="1" width="2" fill="#000"/><rect x="7" y="23" height="1" width="1" fill="#000"/><rect x="9" y="23" height="1" width="1" fill="#000"/><rect x="11" y="23" height="1" width="1" fill="#000"/><rect x="17" y="23" height="1" width="1" fill="#000"/><rect x="19" y="23" height="2" width="1" fill="#000"/><rect x="43" y="23" height="1" width="2" fill="#000"/><rect x="51" y="23" height="1" width="1" fill="#000"/><rect x="55" y="23" height="1" width="1" fill="#000"/><rect x="4" y="24" height="1" width="1" fill="#000"/><rect x="8" y="24" height="2" width="1" fill="#000"/><rect x="10" y="24" height="3" width="1" fill="#000"/><rect x="12" y="24" height="1" width="1" fill="#000"/><rect x="45" y="24" height="1" width="2" fill="#000"/><rect x="48" y="24" height="2" width="1" fill="#000"/><rect x="53" y="24" height="1" width="1" fill="#000"/><rect x="56" y="24" height="3" width="1" fill="#000"/><rect x="58" y="24" height="2" width="1" fill="#000"/><rect x="60" y="24" height="1" width="1" fill="#000"/><rect x="3" y="25" height="1" width="1" fill="#000"/><rect x="7" y="25" height="1" width="1" fill="#000"/><rect x="13" y="25" height="1" width="1" fill="#000"/><rect x="17" y="25" height="1" width="2" fill="#000"/><rect x="45" y="25" height="1" width="1" fill="#000"/><rect x="51" y="25" height="1" width="2" fill="#000"/><rect x="54" y="25" height="1" width="1" fill="#000"/><rect x="57" y="25" height="1" width="1" fill="#000"/><rect x="2" y="26" height="3" width="1" fill="#000"/><rect x="6" y="26" height="1" width="1" fill="#000"/><rect x="9" y="26" height="1" width="1" fill="#000"/><rect x="11" y="26" height="1" width="2" fill="#000"/><rect x="14" y="26" height="3" width="1" fill="#000"/><rect x="16" y="26" height="3" width="1" fill="#000"/><rect x="44" y="26" height="1" width="1" fill="#000"/><rect x="1" y="27" height="1" width="1" fill="#000"/><rect x="3" y="27" height="1" width="3" fill="#000"/><rect x="7" y="27" height="1" width="1" fill="#000"/><rect x="17" y="27" height="4" width="1" fill="#000"/><rect x="19" y="27" height="1" width="1" fill="#000"/><rect x="46" y="27" height="6" width="1" fill="#000"/><rect x="48" y="27" height="1" width="3" fill="#000"/><rect x="53" y="27" height="1" width="1" fill="#000"/><rect x="55" y="27" height="1" width="1" fill="#000"/><rect x="57" y="27" height="1" width="1" fill="#000"/><rect x="4" y="28" height="1" width="1" fill="#000"/><rect x="12" y="28" height="1" width="2" fill="#000"/><rect x="15" y="28" height="1" width="1" fill="#000"/><rect x="18" y="28" height="1" width="1" fill="#000"/><rect x="49" y="28" height="1" width="2" fill="#000"/><rect x="52" y="28" height="5" width="1" fill="#000"/><rect x="60" y="28" height="1" width="1" fill="#000"/><rect x="1" y="29" height="1" width="1" fill="#000"/><rect x="5" y="29" height="1" width="6" fill="#000"/><rect x="13" y="29" height="1" width="1" fill="#000"/><rect x="19" y="29" height="1" width="1" fill="#000"/><rect x="45" y="29" height="1" width="1" fill="#000"/><rect x="47" y="29" height="1" width="1" fill="#000"/><rect x="49" y="29" height="1" width="1" fill="#000"/><rect x="53" y="29" height="1" width="7" fill="#000"/><rect x="61" y="29" height="1" width="1" fill="#000"/><rect x="2" y="30" height="1" width="1" fill="#000"/><rect x="5" y="30" height="4" width="1" fill="#000"/><rect x="9" y="30" height="4" width="2" fill="#000"/><rect x="15" y="30" height="1" width="2" fill="#000"/><rect x="18" y="30" height="1" width="1" fill="#000"/><rect x="48" y="30" height="6" width="1" fill="#000"/><rect x="53" y="30" height="4" width="1" fill="#000"/><rect x="57" y="30" height="4" width="1" fill="#000"/><rect x="60" y="30" height="4" width="1" fill="#000"/><rect x="1" y="31" height="1" width="1" fill="#000"/><rect x="4" y="31" height="4" width="1" fill="#000"/><rect x="7" y="31" height="1" width="1" fill="#000"/><rect x="11" y="31" height="3" width="1" fill="#000"/><rect x="19" y="31" height="1" width="1" fill="#000"/><rect x="43" y="31" height="3" width="1" fill="#000"/><rect x="45" y="31" height="7" width="1" fill="#000"/><rect x="47" y="31" height="2" width="1" fill="#000"/><rect x="49" y="31" height="1" width="1" fill="#000"/><rect x="55" y="31" height="1" width="1" fill="#000"/><rect x="59" y="31" height="1" width="1" fill="#000"/><rect x="14" y="32" height="1" width="5" fill="#000"/><rect x="44" y="32" height="4" width="1" fill="#000"/><rect x="50" y="32" height="1" width="2" fill="#000"/><rect x="61" y="32" height="1" width="1" fill="#000"/><rect x="1" y="33" height="2" width="1" fill="#000"/><rect x="6" y="33" height="1" width="3" fill="#000"/><rect x="12" y="33" height="1" width="3" fill="#000"/><rect x="17" y="33" height="1" width="1" fill="#000"/><rect x="19" y="33" height="1" width="1" fill="#000"/><rect x="49" y="33" height="1" width="1" fill="#000"/><rect x="51" y="33" height="1" width="1" fill="#000"/><rect x="54" y="33" height="1" width="3" fill="#000"/><rect x="58" y="33" height="1" width="2" fill="#000"/><rect x="2" y="34" height="1" width="2" fill="#000"/><rect x="13" y="34" height="1" width="1" fill="#000"/><rect x="15" y="34" height="2" width="2" fill="#000"/><rect x="55" y="34" height="2" width="2" fill="#000"/><rect x="61" y="34" height="7" width="1" fill="#000"/><rect x="5" y="35" height="1" width="1" fill="#000"/><rect x="7" y="35" height="1" width="3" fill="#000"/><rect x="14" y="35" height="1" width="1" fill="#000"/><rect x="17" y="35" height="1" width="2" fill="#000"/><rect x="47" y="35" height="1" width="1" fill="#000"/><rect x="50" y="35" height="2" width="1" fill="#000"/><rect x="52" y="35" height="1" width="1" fill="#000"/><rect x="54" y="35" height="3" width="1" fill="#000"/><rect x="57" y="35" height="1" width="1" fill="#000"/><rect x="59" y="35" height="1" width="1" fill="#000"/><rect x="1" y="36" height="1" width="4" fill="#000"/><rect x="9" y="36" height="1" width="2" fill="#000"/><rect x="15" y="36" height="1" width="1" fill="#000"/><rect x="46" y="36" height="1" width="1" fill="#000"/><rect x="53" y="36" height="1" width="1" fill="#000"/><rect x="56" y="36" height="2" width="1" fill="#000"/><rect x="58" y="36" height="4" width="1" fill="#000"/><rect x="60" y="36" height="4" width="1" fill="#000"/><rect x="1" y="37" height="1" width="1" fill="#000"/><rect x="6" y="37" height="1" width="4" fill="#000"/><rect x="12" y="37" height="1" width="3" fill="#000"/><rect x="16" y="37" height="1" width="2" fill="#000"/><rect x="19" y="37" height="2" width="1" fill="#000"/><rect x="43" y="37" height="1" width="1" fill="#000"/><rect x="47" y="37" height="1" width="1" fill="#000"/><rect x="49" y="37" height="1" width="1" fill="#000"/><rect x="51" y="37" height="1" width="1" fill="#000"/><rect x="55" y="37" height="1" width="1" fill="#000"/><rect x="2" y="38" height="1" width="2" fill="#000"/><rect x="6" y="38" height="3" width="1" fill="#000"/><rect x="10" y="38" height="1" width="4" fill="#000"/><rect x="15" y="38" height="1" width="1" fill="#000"/><rect x="17" y="38" height="1" width="1" fill="#000"/><rect x="53" y="38" height="1" width="1" fill="#000"/><rect x="2" y="39" height="1" width="1" fill="#000"/><rect x="4" y="39" height="2" width="1" fill="#000"/><rect x="7" y="39" height="1" width="1" fill="#000"/><rect x="9" y="39" height="1" width="1" fill="#000"/><rect x="11" y="39" height="1" width="3" fill="#000"/><rect x="18" y="39" height="2" width="1" fill="#000"/><rect x="43" y="39" height="1" width="1" fill="#000"/><rect x="45" y="39" height="1" width="1" fill="#000"/><rect x="47" y="39" height="1" width="1" fill="#000"/><rect x="49" y="39" height="1" width="1" fill="#000"/><rect x="51" y="39" height="1" width="1" fill="#000"/><rect x="54" y="39" height="1" width="2" fill="#000"/><rect x="59" y="39" height="1" width="1" fill="#000"/><rect x="1" y="40" height="1" width="1" fill="#000"/><rect x="8" y="40" height="1" width="1" fill="#000"/><rect x="10" y="40" height="4" width="1" fill="#000"/><rect x="13" y="40" height="1" width="2" fill="#000"/><rect x="16" y="40" height="2" width="2" fill="#000"/><rect x="19" y="40" height="9" width="1" fill="#000"/><rect x="46" y="40" height="1" width="1" fill="#000"/><rect x="48" y="40" height="3" width="1" fill="#000"/><rect x="52" y="40" height="1" width="3" fill="#000"/><rect x="56" y="40" height="1" width="1" fill="#000"/><rect x="5" y="41" height="1" width="1" fill="#000"/><rect x="7" y="41" height="1" width="1" fill="#000"/><rect x="9" y="41" height="1" width="1" fill="#000"/><rect x="14" y="41" height="1" width="2" fill="#000"/><rect x="43" y="41" height="1" width="3" fill="#000"/><rect x="49" y="41" height="1" width="2" fill="#000"/><rect x="55" y="41" height="3" width="1" fill="#000"/><rect x="57" y="41" height="1" width="1" fill="#000"/><rect x="59" y="41" height="1" width="2" fill="#000"/><rect x="1" y="42" height="1" width="3" fill="#000"/><rect x="6" y="42" height="2" width="1" fill="#000"/><rect x="11" y="42" height="5" width="1" fill="#000"/><rect x="13" y="42" height="1" width="1" fill="#000"/><rect x="15" y="42" height="2" width="1" fill="#000"/><rect x="17" y="42" height="1" width="2" fill="#000"/><rect x="53" y="42" height="2" width="1" fill="#000"/><rect x="58" y="42" height="1" width="2" fill="#000"/><rect x="2" y="43" height="1" width="1" fill="#000"/><rect x="4" y="43" height="1" width="2" fill="#000"/><rect x="7" y="43" height="1" width="3" fill="#000"/><rect x="16" y="43" height="2" width="2" fill="#000"/><rect x="20" y="43" height="1" width="5" fill="#000"/><rect x="26" y="43" height="1" width="2" fill="#000"/><rect x="30" y="43" height="4" width="2" fill="#000"/><rect x="36" y="43" height="1" width="3" fill="#000"/><rect x="40" y="43" height="1" width="1" fill="#000"/><rect x="46" y="43" height="2" width="1" fill="#000"/><rect x="51" y="43" height="1" width="1" fill="#000"/><rect x="54" y="43" height="2" width="1" fill="#000"/><rect x="57" y="43" height="1" width="2" fill="#000"/><rect x="60" y="43" height="1" width="2" fill="#000"/><rect x="9" y="44" height="1" width="1" fill="#000"/><rect x="12" y="44" height="1" width="3" fill="#000"/><rect x="18" y="44" height="1" width="1" fill="#000"/><rect x="21" y="44" height="1" width="2" fill="#000"/><rect x="24" y="44" height="1" width="2" fill="#000"/><rect x="32" y="44" height="2" width="1" fill="#000"/><rect x="35" y="44" height="1" width="2" fill="#000"/><rect x="38" y="44" height="4" width="1" fill="#000"/><rect x="41" y="44" height="1" width="2" fill="#000"/><rect x="45" y="44" height="4" width="1" fill="#000"/><rect x="49" y="44" height="2" width="2" fill="#000"/><rect x="57" y="44" height="2" width="1" fill="#000"/><rect x="3" y="45" height="3" width="1" fill="#000"/><rect x="5" y="45" height="4" width="1" fill="#000"/><rect x="7" y="45" height="1" width="1" fill="#000"/><rect x="10" y="45" height="2" width="1" fill="#000"/><rect x="12" y="45" height="1" width="2" fill="#000"/><rect x="16" y="45" height="1" width="1" fill="#000"/><rect x="23" y="45" height="1" width="1" fill="#000"/><rect x="26" y="45" height="1" width="1" fill="#000"/><rect x="36" y="45" height="4" width="1" fill="#000"/><rect x="39" y="45" height="1" width="3" fill="#000"/><rect x="44" y="45" height="1" width="1" fill="#000"/><rect x="48" y="45" height="2" width="1" fill="#000"/><rect x="51" y="45" height="1" width="1" fill="#000"/><rect x="53" y="45" height="4" width="1" fill="#000"/><rect x="61" y="45" height="3" width="1" fill="#000"/><rect x="4" y="46" height="1" width="1" fill="#000"/><rect x="6" y="46" height="4" width="1" fill="#000"/><rect x="8" y="46" height="1" width="1" fill="#000"/><rect x="12" y="46" height="1" width="1" fill="#000"/><rect x="15" y="46" height="2" width="1" fill="#000"/><rect x="18" y="46" height="2" width="1" fill="#000"/><rect x="20" y="46" height="1" width="2" fill="#000"/><rect x="25" y="46" height="1" width="1" fill="#000"/><rect x="27" y="46" height="1" width="3" fill="#000"/><rect x="33" y="46" height="1" width="2" fill="#000"/><rect x="37" y="46" height="1" width="1" fill="#000"/><rect x="41" y="46" height="4" width="1" fill="#000"/><rect x="55" y="46" height="2" width="1" fill="#000"/><rect x="60" y="46" height="2" width="1" fill="#000"/><rect x="7" y="47" height="1" width="1" fill="#000"/><rect x="13" y="47" height="1" width="2" fill="#000"/><rect x="20" y="47" height="1" width="1" fill="#000"/><rect x="22" y="47" height="2" width="1" fill="#000"/><rect x="27" y="47" height="1" width="1" fill="#000"/><rect x="30" y="47" height="2" width="1" fill="#000"/><rect x="32" y="47" height="1" width="1" fill="#000"/><rect x="35" y="47" height="2" width="1" fill="#000"/><rect x="39" y="47" height="1" width="1" fill="#000"/><rect x="43" y="47" height="1" width="2" fill="#000"/><rect x="47" y="47" height="1" width="1" fill="#000"/><rect x="49" y="47" height="2" width="2" fill="#000"/><rect x="52" y="47" height="2" width="1" fill="#000"/><rect x="54" y="47" height="2" width="1" fill="#000"/><rect x="57" y="47" height="2" width="1" fill="#000"/><rect x="2" y="48" height="3" width="1" fill="#000"/><rect x="11" y="48" height="1" width="3" fill="#000"/><rect x="16" y="48" height="1" width="2" fill="#000"/><rect x="21" y="48" height="1" width="1" fill="#000"/><rect x="23" y="48" height="1" width="2" fill="#000"/><rect x="26" y="48" height="1" width="1" fill="#000"/><rect x="28" y="48" height="1" width="2" fill="#000"/><rect x="34" y="48" height="3" width="1" fill="#000"/><rect x="44" y="48" height="2" width="1" fill="#000"/><rect x="48" y="48" height="3" width="1" fill="#000"/><rect x="51" y="48" height="2" width="1" fill="#000"/><rect x="56" y="48" height="1" width="1" fill="#000"/><rect x="1" y="49" height="2" width="1" fill="#000"/><rect x="3" y="49" height="1" width="2" fill="#000"/><rect x="7" y="49" height="1" width="5" fill="#000"/><rect x="14" y="49" height="1" width="1" fill="#000"/><rect x="17" y="49" height="1" width="1" fill="#000"/><rect x="25" y="49" height="5" width="1" fill="#000"/><rect x="27" y="49" height="1" width="1" fill="#000"/><rect x="32" y="49" height="1" width="1" fill="#000"/><rect x="37" y="49" height="1" width="4" fill="#000"/><rect x="43" y="49" height="1" width="1" fill="#000"/><rect x="45" y="49" height="1" width="1" fill="#000"/><rect x="49" y="49" height="6" width="1" fill="#000"/><rect x="58" y="49" height="1" width="4" fill="#000"/><rect x="3" y="50" height="4" width="1" fill="#000"/><rect x="8" y="50" height="1" width="6" fill="#000"/><rect x="15" y="50" height="1" width="2" fill="#000"/><rect x="18" y="50" height="1" width="4" fill="#000"/><rect x="23" y="50" height="1" width="2" fill="#000"/><rect x="28" y="50" height="1" width="4" fill="#000"/><rect x="33" y="50" height="2" width="1" fill="#000"/><rect x="35" y="50" height="1" width="1" fill="#000"/><rect x="52" y="50" height="2" width="1" fill="#000"/><rect x="54" y="50" height="4" width="1" fill="#000"/><rect x="59" y="50" height="1" width="1" fill="#000"/><rect x="4" y="51" height="1" width="4" fill="#000"/><rect x="9" y="51" height="2" width="4" fill="#000"/><rect x="14" y="51" height="1" width="2" fill="#000"/><rect x="17" y="51" height="2" width="2" fill="#000"/><rect x="21" y="51" height="1" width="3" fill="#000"/><rect x="29" y="51" height="1" width="4" fill="#000"/><rect x="36" y="51" height="1" width="1" fill="#000"/><rect x="40" y="51" height="8" width="1" fill="#000"/><rect x="46" y="51" height="1" width="2" fill="#000"/><rect x="55" y="51" height="1" width="2" fill="#000"/><rect x="60" y="51" height="2" width="2" fill="#000"/><rect x="1" y="52" height="2" width="2" fill="#000"/><rect x="5" y="52" height="1" width="1" fill="#000"/><rect x="13" y="52" height="1" width="1" fill="#000"/><rect x="22" y="52" height="1" width="3" fill="#000"/><rect x="26" y="52" height="1" width="2" fill="#000"/><rect x="34" y="52" height="1" width="2" fill="#000"/><rect x="38" y="52" height="2" width="1" fill="#000"/><rect x="42" y="52" height="4" width="1" fill="#000"/><rect x="44" y="52" height="2" width="1" fill="#000"/><rect x="47" y="52" height="1" width="1" fill="#000"/><rect x="51" y="52" height="1" width="1" fill="#000"/><rect x="53" y="52" height="6" width="1" fill="#000"/><rect x="59" y="52" height="2" width="1" fill="#000"/><rect x="4" y="53" height="1" width="1" fill="#000"/><rect x="7" y="53" height="1" width="1" fill="#000"/><rect x="10" y="53" height="2" width="1" fill="#000"/><rect x="12" y="53" height="1" width="1" fill="#000"/><rect x="17" y="53" height="1" width="1" fill="#000"/><rect x="20" y="53" height="1" width="1" fill="#000"/><rect x="22" y="53" height="1" width="2" fill="#000"/><rect x="26" y="53" height="1" width="1" fill="#000"/><rect x="28" y="53" height="1" width="6" fill="#000"/><rect x="35" y="53" height="1" width="3" fill="#000"/><rect x="39" y="53" height="1" width="1" fill="#000"/><rect x="43" y="53" height="1" width="1" fill="#000"/><rect x="45" y="53" height="1" width="1" fill="#000"/><rect x="55" y="53" height="1" width="3" fill="#000"/><rect x="61" y="53" height="3" width="1" fill="#000"/><rect x="9" y="54" height="2" width="1" fill="#000"/><rect x="15" y="54" height="2" width="2" fill="#000"/><rect x="27" y="54" height="1" width="1" fill="#000"/><rect x="29" y="54" height="4" width="1" fill="#000"/><rect x="33" y="54" height="1" width="3" fill="#000"/><rect x="37" y="54" height="1" width="1" fill="#000"/><rect x="41" y="54" height="1" width="1" fill="#000"/><rect x="48" y="54" height="2" width="1" fill="#000"/><rect x="51" y="54" height="2" width="2" fill="#000"/><rect x="57" y="54" height="2" width="2" fill="#000"/><rect x="1" y="55" height="1" width="7" fill="#000"/><rect x="12" y="55" height="1" width="2" fill="#000"/><rect x="17" y="55" height="1" width="2" fill="#000"/><rect x="20" y="55" height="2" width="1" fill="#000"/><rect x="23" y="55" height="1" width="2" fill="#000"/><rect x="26" y="55" height="2" width="1" fill="#000"/><rect x="31" y="55" height="1" width="1" fill="#000"/><rect x="33" y="55" height="5" width="1" fill="#000"/><rect x="36" y="55" height="1" width="1" fill="#000"/><rect x="38" y="55" height="1" width="2" fill="#000"/><rect x="45" y="55" height="3" width="1" fill="#000"/><rect x="47" y="55" height="1" width="1" fill="#000"/><rect x="55" y="55" height="1" width="1" fill="#000"/><rect x="59" y="55" height="1" width="2" fill="#000"/><rect x="1" y="56" height="6" width="1" fill="#000"/><rect x="7" y="56" height="6" width="1" fill="#000"/><rect x="10" y="56" height="3" width="1" fill="#000"/><rect x="16" y="56" height="2" width="2" fill="#000"/><rect x="19" y="56" height="1" width="1" fill="#000"/><rect x="22" y="56" height="2" width="2" fill="#000"/><rect x="25" y="56" height="2" width="1" fill="#000"/><rect x="37" y="56" height="2" width="2" fill="#000"/><rect x="41" y="56" height="2" width="1" fill="#000"/><rect x="44" y="56" height="2" width="1" fill="#000"/><rect x="46" y="56" height="2" width="1" fill="#000"/><rect x="49" y="56" height="1" width="3" fill="#000"/><rect x="57" y="56" height="5" width="1" fill="#000"/><rect x="3" y="57" height="3" width="3" fill="#000"/><rect x="9" y="57" height="1" width="1" fill="#000"/><rect x="11" y="57" height="3" width="1" fill="#000"/><rect x="18" y="57" height="4" width="1" fill="#000"/><rect x="24" y="57" height="5" width="1" fill="#000"/><rect x="28" y="57" height="3" width="1" fill="#000"/><rect x="30" y="57" height="2" width="3" fill="#000"/><rect x="34" y="57" height="1" width="2" fill="#000"/><rect x="39" y="57" height="1" width="1" fill="#000"/><rect x="42" y="57" height="1" width="1" fill="#000"/><rect x="47" y="57" height="1" width="1" fill="#000"/><rect x="49" y="57" height="5" width="1" fill="#000"/><rect x="54" y="57" height="1" width="3" fill="#000"/><rect x="59" y="57" height="1" width="1" fill="#000"/><rect x="12" y="58" height="3" width="1" fill="#000"/><rect x="17" y="58" height="1" width="1" fill="#000"/><rect x="21" y="58" height="1" width="1" fill="#000"/><rect x="26" y="58" height="1" width="1" fill="#000"/><rect x="36" y="58" height="1" width="1" fill="#000"/><rect x="38" y="58" height="4" width="1" fill="#000"/><rect x="60" y="58" height="1" width="1" fill="#000"/><rect x="9" y="59" height="2" width="1" fill="#000"/><rect x="15" y="59" height="1" width="2" fill="#000"/><rect x="19" y="59" height="1" width="2" fill="#000"/><rect x="23" y="59" height="2" width="1" fill="#000"/><rect x="27" y="59" height="2" width="1" fill="#000"/><rect x="29" y="59" height="1" width="1" fill="#000"/><rect x="31" y="59" height="1" width="1" fill="#000"/><rect x="35" y="59" height="3" width="1" fill="#000"/><rect x="37" y="59" height="3" width="1" fill="#000"/><rect x="41" y="59" height="3" width="1" fill="#000"/><rect x="45" y="59" height="1" width="1" fill="#000"/><rect x="51" y="59" height="2" width="1" fill="#000"/><rect x="53" y="59" height="1" width="1" fill="#000"/><rect x="56" y="59" height="2" width="1" fill="#000"/><rect x="61" y="59" height="1" width="1" fill="#000"/><rect x="10" y="60" height="2" width="1" fill="#000"/><rect x="13" y="60" height="1" width="1" fill="#000"/><rect x="16" y="60" height="2" width="2" fill="#000"/><rect x="21" y="60" height="1" width="1" fill="#000"/><rect x="25" y="60" height="1" width="1" fill="#000"/><rect x="32" y="60" height="1" width="1" fill="#000"/><rect x="36" y="60" height="2" width="1" fill="#000"/><rect x="44" y="60" height="2" width="1" fill="#000"/><rect x="47" y="60" height="1" width="1" fill="#000"/><rect x="60" y="60" height="2" width="1" fill="#000"/><rect x="2" y="61" height="1" width="5" fill="#000"/><rect x="11" y="61" height="1" width="1" fill="#000"/><rect x="14" y="61" height="1" width="1" fill="#000"/><rect x="19" y="61" height="1" width="1" fill="#000"/><rect x="26" y="61" height="1" width="1" fill="#000"/><rect x="33" y="61" height="1" width="2" fill="#000"/><rect x="40" y="61" height="1" width="1" fill="#000"/><rect x="48" y="61" height="1" width="1" fill="#000"/><rect x="53" y="61" height="1" width="3" fill="#000"/><rect x="59" y="61" height="1" width="1" fill="#000"/><rect x="61" y="61" height="1" width="1" fill="#000"/><image xlink:href="kimi.png" x="21" y="21" width="21" height="21"/></svg>