<svg xmlns="http://www.w3.org/2000/svg" xmlns:xlink="http://www.w3.org/1999/xlink" version="1.1" shape-rendering="crispEdges" viewBox="0 0 63 63"><rect x="0" y="0" height="63" width="63" fill="#FFF"/><rect x="1" y="1" height="1" width="7" fill="#000"/><rect x="10" y="1" height="1" width="1" fill="#000"/><rect x="12" y="1" height="1" width="7" fill="#000"/><rect x="21" y="1" height="3" width="1" fill="#000"/><rect x="23" y="1" height="2" width="3" fill="#000"/><rect x="28" y="1" height="1" width="1" fill="#000"/><rect x="30" y="1" height="1" width="3" fill="#000"/><rect x="36" y="1" height="1" width="2" fill="#000"/><rect x="39" y="1" height="1" width="1" fill="#000"/><rect x="42" y="1" height="1" width="3" fill="#000"/><rect x="46" y="1" height="2" width="1" fill="#000"/><rect x="49" y="1" height="2" width="1" fill="#000"/><rect x="52" y="1" height="3" width="2" fill="#000"/><rect x="55" y="1" height="1" width="7" fill="#000"/><rect x="1" y="2" height="6" width="1" fill="#000"/><rect x="7" y="2" height="6" width="1" fill="#000"/><rect x="11" y="2" height="1" width="1" fill="#000"/><rect x="16" y="2" height="1" width="1" fill="#000"/><rect x="18" y="2" height="1" width="2" fill="#000"/><rect x="22" y="2" height="1" width="1" fill="#000"/><rect x="34" y="2" height="1" width="1" fill="#000"/><rect x="37" y="2" height="2" width="2" fill="#000"/><rect x="42" y="2" height="1" width="1" fill="#000"/><rect x="45" y="2" height="1" width="1" fill="#000"/><rect x="48" y="2" height="2" width="1" fill="#000"/><rect x="50" y="2" height="1" width="1" fill="#000"/><rect x="55" y="2" height="6" width="1" fill="#000"/><rect x="61" y="2" height="6" width="1" fill="#000"/><rect x="3" y="3" height="3" width="3" fill="#000"/><rect x="9" y="3" height="1" width="1" fill="#000"/><rect x="13" y="3" height="1" width="1" fill="#000"/><rect x="17" y="3" height="1" width="1" fill="#000"/><rect x="20" y="3" height="4" width="1" fill="#000"/><rect x="24" y="3" height="1" width="2" fill="#000"/><rect x="29" y="3" height="1" width="4" fill="#000"/><rect x="39" y="3" height="1" width="2" fill="#000"/><rect x="43" y="3" height="2" width="1" fill="#000"/><rect x="47" y="3" height="1" width="1" fill="#000"/><rect x="51" y="3" height="5" width="1" fill="#000"/><rect x="57" y="3" height="3" width="3" fill="#000"/><rect x="10" y="4" height="1" width="2" fill="#000"/><rect x="15" y="4" height="1" width="1" fill="#000"/><rect x="18" y="4" height="1" width="2" fill="#000"/><rect x="26" y="4" height="2" width="1" fill="#000"/><rect x="29" y="4" height="6" width="1" fill="#000"/><rect x="31" y="4" height="2" width="4" fill="#000"/><rect x="38" y="4" height="3" width="1" fill="#000"/><rect x="40" y="4" height="1" width="3" fill="#000"/><rect x="44" y="4" height="1" width="1" fill="#000"/><rect x="49" y="4" height="1" width="2" fill="#000"/><rect x="53" y="4" height="1" width="1" fill="#000"/><rect x="9" y="5" height="3" width="1" fill="#000"/><rect x="12" y="5" height="1" width="1" fill="#000"/><rect x="16" y="5" height="1" width="1" fill="#000"/><rect x="19" y="5" height="3" width="1" fill="#000"/><rect x="22" y="5" height="2" width="1" fill="#000"/><rect x="24" y="5" height="1" width="1" fill="#000"/><rect x="28" y="5" height="2" width="1" fill="#000"/><rect x="30" y="5" height="1" width="1" fill="#000"/><rect x="35" y="5" height="1" width="1" fill="#000"/><rect x="39" y="5" height="1" width="2" fill="#000"/><rect x="42" y="5" height="1" width="1" fill="#000"/><rect x="45" y="5" height="2" width="2" fill="#000"/><rect x="52" y="5" height="1" width="1" fill="#000"/><rect x="13" y="6" height="2" width="1" fill="#000"/><rect x="17" y="6" height="1" width="2" fill="#000"/><rect x="23" y="6" height="4" width="1" fill="#000"/><rect x="33" y="6" height="6" width="1" fill="#000"/><rect x="37" y="6" height="4" width="1" fill="#000"/><rect x="40" y="6" height="1" width="2" fill="#000"/><rect x="43" y="6" height="2" width="1" fill="#000"/><rect x="48" y="6" height="1" width="1" fill="#000"/><rect x="2" y="7" height="1" width="5" fill="#000"/><rect x="11" y="7" height="1" width="1" fill="#000"/><rect x="15" y="7" height="2" width="1" fill="#000"/><rect x="17" y="7" height="2" width="1" fill="#000"/><rect x="21" y="7" height="3" width="1" fill="#000"/><rect x="25" y="7" height="2" width="1" fill="#000"/><rect x="27" y="7" height="1" width="1" fill="#000"/><rect x="31" y="7" height="1" width="1" fill="#000"/><rect x="35" y="7" height="1" width="1" fill="#000"/><rect x="39" y="7" height="1" width="1" fill="#000"/><rect x="41" y="7" height="1" width="1" fill="#000"/><rect x="45" y="7" height="1" width="1" fill="#000"/><rect x="47" y="7" height="1" width="1" fill="#000"/><rect x="49" y="7" height="3" width="1" fill="#000"/><rect x="53" y="7" height="2" width="1" fill="#000"/><rect x="56" y="7" height="1" width="5" fill="#000"/><rect x="12" y="8" height="1" width="1" fill="#000"/><rect x="14" y="8" height="2" width="1" fill="#000"/><rect x="18" y="8" height="2" width="1" fill="#000"/><rect x="22" y="8" height="5" width="1" fill="#000"/><rect x="34" y="8" height="6" width="1" fill="#000"/><rect x="36" y="8" height="3" width="1" fill="#000"/><rect x="42" y="8" height="2" width="1" fill="#000"/><rect x="52" y="8" height="4" width="1" fill="#000"/><rect x="2" y="9" height="2" width="1" fill="#000"/><rect x="5" y="9" height="2" width="1" fill="#000"/><rect x="7" y="9" height="1" width="1" fill="#000"/><rect x="9" y="9" height="3" width="1" fill="#000"/><rect x="13" y="9" height="1" width="1" fill="#000"/><rect x="16" y="9" height="4" width="1" fill="#000"/><rect x="27" y="9" height="9" width="1" fill="#000"/><rect x="30" y="9" height="1" width="3" fill="#000"/><rect x="39" y="9" height="4" width="1" fill="#000"/><rect x="45" y="9" height="1" width="3" fill="#000"/><rect x="50" y="9" height="1" width="2" fill="#000"/><rect x="54" y="9" height="3" width="1" fill="#000"/><rect x="56" y="9" height="2" width="2" fill="#000"/><rect x="59" y="9" height="1" width="1" fill="#000"/><rect x="1" y="10" height="1" width="1" fill="#000"/><rect x="3" y="10" height="1" width="2" fill="#000"/><rect x="8" y="10" height="2" width="1" fill="#000"/><rect x="10" y="10" height="1" width="1" fill="#000"/><rect x="12" y="10" height="3" width="1" fill="#000"/><rect x="15" y="10" height="1" width="1" fill="#000"/><rect x="24" y="10" height="3" width="1" fill="#000"/><rect x="26" y="10" height="2" width="1" fill="#000"/><rect x="31" y="10" height="2" width="1" fill="#000"/><rect x="38" y="10" height="4" width="1" fill="#000"/><rect x="40" y="10" height="3" width="2" fill="#000"/><rect x="43" y="10" height="1" width="4" fill="#000"/><rect x="51" y="10" height="1" width="1" fill="#000"/><rect x="55" y="10" height="1" width="1" fill="#000"/><rect x="58" y="10" height="2" width="1" fill="#000"/><rect x="7" y="11" height="1" width="1" fill="#000"/><rect x="11" y="11" height="1" width="1" fill="#000"/><rect x="14" y="11" height="1" width="1" fill="#000"/><rect x="19" y="11" height="1" width="3" fill="#000"/><rect x="25" y="11" height="2" width="1" fill="#000"/><rect x="28" y="11" height="1" width="3" fill="#000"/><rect x="32" y="11" height="5" width="1" fill="#000"/><rect x="37" y="11" height="1" width="1" fill="#000"/><rect x="43" y="11" height="1" width="2" fill="#000"/><rect x="46" y="11" height="1" width="2" fill="#000"/><rect x="49" y="11" height="1" width="2" fill="#000"/><rect x="59" y="11" height="7" width="1" fill="#000"/><rect x="1" y="12" height="1" width="2" fill="#000"/><rect x="4" y="12" height="1" width="3" fill="#000"/><rect x="10" y="12" height="1" width="1" fill="#000"/><rect x="15" y="12" height="2" width="1" fill="#000"/><rect x="17" y="12" height="6" width="1" fill="#000"/><rect x="20" y="12" height="1" width="1" fill="#000"/><rect x="23" y="12" height="1" width="1" fill="#000"/><rect x="29" y="12" height="5" width="2" fill="#000"/><rect x="43" y="12" height="1" width="1" fill="#000"/><rect x="47" y="12" height="2" width="2" fill="#000"/><rect x="53" y="12" height="2" width="1" fill="#000"/><rect x="55" y="12" height="4" width="1" fill="#000"/><rect x="57" y="12" height="2" width="1" fill="#000"/><rect x="60" y="12" height="1" width="2" fill="#000"/><rect x="1" y="13" height="2" width="1" fill="#000"/><rect x="7" y="13" height="1" width="1" fill="#000"/><rect x="19" y="13" height="1" width="1" fill="#000"/><rect x="21" y="13" height="2" width="1" fill="#000"/><rect x="26" y="13" height="3" width="1" fill="#000"/><rect x="37" y="13" height="2" width="1" fill="#000"/><rect x="40" y="13" height="3" width="1" fill="#000"/><rect x="42" y="13" height="7" width="1" fill="#000"/><rect x="45" y="13" height="1" width="2" fill="#000"/><rect x="49" y="13" height="1" width="2" fill="#000"/><rect x="52" y="13" height="1" width="1" fill="#000"/><rect x="54" y="13" height="7" width="1" fill="#000"/><rect x="58" y="13" height="3" width="1" fill="#000"/><rect x="61" y="13" height="1" width="1" fill="#000"/><rect x="2" y="14" height="1" width="1" fill="#000"/><rect x="5" y="14" height="1" width="2" fill="#000"/><rect x="8" y="14" height="1" width="1" fill="#000"/><rect x="14" y="14" height="2" width="1" fill="#000"/><rect x="22" y="14" height="1" width="4" fill="#000"/><rect x="28" y="14" height="1" width="1" fill="#000"/><rect x="31" y="14" height="1" width="1" fill="#000"/><rect x="36" y="14" height="4" width="1" fill="#000"/><rect x="43" y="14" height="1" width="2" fill="#000"/><rect x="46" y="14" height="1" width="1" fill="#000"/><rect x="48" y="14" height="13" width="1" fill="#000"/><rect x="51" y="14" height="1" width="1" fill="#000"/><rect x="56" y="14" height="4" width="1" fill="#000"/><rect x="3" y="15" height="1" width="2" fill="#000"/><rect x="7" y="15" height="1" width="1" fill="#000"/><rect x="12" y="15" height="3" width="1" fill="#000"/><rect x="19" y="15" height="3" width="1" fill="#000"/><rect x="22" y="15" height="5" width="1" fill="#000"/><rect x="24" y="15" height="1" width="1" fill="#000"/><rect x="34" y="15" height="3" width="1" fill="#000"/><rect x="43" y="15" height="5" width="1" fill="#000"/><rect x="45" y="15" height="1" width="1" fill="#000"/><rect x="47" y="15" height="1" width="1" fill="#000"/><rect x="52" y="15" height="1" width="2" fill="#000"/><rect x="60" y="15" height="3" width="1" fill="#000"/><rect x="2" y="16" height="2" width="2" fill="#000"/><rect x="11" y="16" height="2" width="1" fill="#000"/><rect x="13" y="16" height="1" width="1" fill="#000"/><rect x="16" y="16" height="1" width="1" fill="#000"/><rect x="20" y="16" height="1" width="2" fill="#000"/><rect x="25" y="16" height="1" width="1" fill="#000"/><rect x="33" y="16" height="1" width="1" fill="#000"/><rect x="35" y="16" height="3" width="1" fill="#000"/><rect x="44" y="16" height="1" width="1" fill="#000"/><rect x="46" y="16" height="3" width="1" fill="#000"/><rect x="51" y="16" height="1" width="1" fill="#000"/><rect x="53" y="16" height="1" width="1" fill="#000"/><rect x="57" y="16" height="2" width="1" fill="#000"/><rect x="61" y="16" height="2" width="1" fill="#000"/><rect x="6" y="17" height="1" width="2" fill="#000"/><rect x="14" y="17" height="1" width="1" fill="#000"/><rect x="18" y="17" height="1" width="1" fill="#000"/><rect x="28" y="17" height="3" width="1" fill="#000"/><rect x="30" y="17" height="1" width="1" fill="#000"/><rect x="39" y="17" height="2" width="2" fill="#000"/><rect x="45" y="17" height="1" width="1" fill="#000"/><rect x="47" y="17" height="1" width="1" fill="#000"/><rect x="49" y="17" height="1" width="2" fill="#000"/><rect x="55" y="17" height="2" width="1" fill="#000"/><rect x="1" y="18" height="3" width="1" fill="#000"/><rect x="3" y="18" height="1" width="1" fill="#000"/><rect x="5" y="18" height="1" width="1" fill="#000"/><rect x="9" y="18" height="1" width="2" fill="#000"/><rect x="13" y="18" height="2" width="1" fill="#000"/><rect x="23" y="18" height="1" width="4" fill="#000"/><rect x="31" y="18" height="1" width="2" fill="#000"/><rect x="51" y="18" height="1" width="2" fill="#000"/><rect x="2" y="19" height="1" width="1" fill="#000"/><rect x="4" y="19" height="1" width="1" fill="#000"/><rect x="6" y="19" height="1" width="3" fill="#000"/><rect x="11" y="19" height="1" width="1" fill="#000"/><rect x="15" y="19" height="2" width="1" fill="#000"/><rect x="18" y="19" height="1" width="2" fill="#000"/><rect x="21" y="19" height="1" width="1" fill="#000"/><rect x="31" y="19" height="1" width="1" fill="#000"/><rect x="37" y="19" height="1" width="2" fill="#000"/><rect x="40" y="19" height="1" width="2" fill="#000"/><rect x="44" y="19" height="1" width="2" fill="#000"/><rect x="50" y="19" height="1" width="1" fill="#000"/><rect x="52" y="19" height="1" width="2" fill="#000"/><rect x="57" y="19" height="4" width="1" fill="#000"/><rect x="59" y="19" height="2" width="1" fill="#000"/><rect x="3" y="20" height="1" width="1" fill="#000"/><rect x="5" y="20" height="1" width="2" fill="#000"/><rect x="8" y="20" height="3" width="1" fill="#000"/><rect x="12" y="20" height="3" width="1" fill="#000"/><rect x="14" y="20" height="6" width="1" fill="#000"/><rect x="17" y="20" height="2" width="1" fill="#000"/><rect x="45" y="20" height="6" width="1" fill="#000"/><rect x="53" y="20" height="1" width="1" fill="#000"/><rect x="55" y="20" height="1" width="1" fill="#000"/><rect x="58" y="20" height="2" width="1" fill="#000"/><rect x="61" y="20" height="1" width="1" fill="#000"/><rect x="2" y="21" height="4" width="1" fill="#000"/><rect x="7" y="21" height="1" width="1" fill="#000"/><rect x="11" y="21" height="6" width="1" fill="#000"/><rect x="13" y="21" height="2" width="1" fill="#000"/><rect x="18" y="21" height="2" width="1" fill="#000"/><rect x="49" y="21" height="2" width="1" fill="#000"/><rect x="51" y="21" height="2" width="1" fill="#000"/><rect x="60" y="21" height="1" width="1" fill="#000"/><rect x="3" y="22" height="1" width="4" fill="#000"/><rect x="10" y="22" height="4" width="1" fill="#000"/><rect x="19" y="22" height="2" width="1" fill="#000"/><rect x="43" y="22" height="1" width="1" fill="#000"/><rect x="46" y="22" height="1" width="1" fill="#000"/><rect x="50" y="22" height="4" width="1" fill="#000"/><rect x="52" y="22" height="1" width="3" fill="#000"/><rect x="56" y="22" height="3" width="1" fill="#000"/><rect x="59" y="22" height="4" width="1" fill="#000"/><rect x="61" y="22" height="1" width="1" fill="#000"/><rect x="1" y="23" height="1" width="1" fill="#000"/><rect x="7" y="23" height="1" width="1" fill="#000"/><rect x="15" y="23" height="1" width="2" fill="#000"/><rect x="52" y="23" height="1" width="1" fill="#000"/><rect x="54" y="23" height="1" width="1" fill="#000"/><rect x="58" y="23" height="4" width="1" fill="#000"/><rect x="3" y="24" height="5" width="1" fill="#000"/><rect x="5" y="24" height="1" width="2" fill="#000"/><rect x="8" y="24" height="1" width="2" fill="#000"/><rect x="16" y="24" height="2" width="2" fill="#000"/><rect x="44" y="24" height="3" width="1" fill="#000"/><rect x="46" y="24" height="1" width="2" fill="#000"/><rect x="49" y="24" height="3" width="1" fill="#000"/><rect x="57" y="24" height="3" width="1" fill="#000"/><rect x="60" y="24" height="1" width="2" fill="#000"/><rect x="4" y="25" height="1" width="2" fill="#000"/><rect x="7" y="25" height="1" width="1" fill="#000"/><rect x="12" y="25" height="1" width="1" fill="#000"/><rect x="15" y="25" height="2" width="1" fill="#000"/><rect x="18" y="25" height="1" width="2" fill="#000"/><rect x="51" y="25" height="2" width="1" fill="#000"/><rect x="60" y="25" height="4" width="1" fill="#000"/><rect x="2" y="26" height="3" width="1" fill="#000"/><rect x="4" y="26" height="1" width="1" fill="#000"/><rect x="6" y="26" height="1" width="1" fill="#000"/><rect x="8" y="26" height="1" width="2" fill="#000"/><rect x="16" y="26" height="2" width="1" fill="#000"/><rect x="43" y="26" height="5" width="1" fill="#000"/><rect x="46" y="26" height="1" width="1" fill="#000"/><rect x="52" y="26" height="1" width="1" fill="#000"/><rect x="54" y="26" height="1" width="3" fill="#000"/><rect x="61" y="26" height="2" width="1" fill="#000"/><rect x="1" y="27" height="3" width="1" fill="#000"/><rect x="5" y="27" height="7" width="1" fill="#000"/><rect x="7" y="27" height="1" width="2" fill="#000"/><rect x="10" y="27" height="4" width="1" fill="#000"/><rect x="12" y="27" height="1" width="2" fill="#000"/><rect x="18" y="27" height="7" width="1" fill="#000"/><rect x="47" y="27" height="2" width="1" fill="#000"/><rect x="54" y="27" height="1" width="1" fill="#000"/><rect x="59" y="27" height="6" width="1" fill="#000"/><rect x="4" y="28" height="1" width="1" fill="#000"/><rect x="8" y="28" height="2" width="1" fill="#000"/><rect x="11" y="28" height="2" width="1" fill="#000"/><rect x="13" y="28" height="1" width="1" fill="#000"/><rect x="15" y="28" height="1" width="1" fill="#000"/><rect x="17" y="28" height="1" width="1" fill="#000"/><rect x="44" y="28" height="2" width="1" fill="#000"/><rect x="46" y="28" height="2" width="1" fill="#000"/><rect x="48" y="28" height="2" width="2" fill="#000"/><rect x="52" y="28" height="1" width="1" fill="#000"/><rect x="55" y="28" height="2" width="2" fill="#000"/><rect x="6" y="29" height="1" width="2" fill="#000"/><rect x="9" y="29" height="6" width="1" fill="#000"/><rect x="12" y="29" height="1" width="1" fill="#000"/><rect x="14" y="29" height="1" width="1" fill="#000"/><rect x="45" y="29" height="2" width="1" fill="#000"/><rect x="51" y="29" height="2" width="1" fill="#000"/><rect x="53" y="29" height="1" width="2" fill="#000"/><rect x="57" y="29" height="6" width="1" fill="#000"/><rect x="61" y="29" height="4" width="1" fill="#000"/><rect x="2" y="30" height="1" width="2" fill="#000"/><rect x="13" y="30" height="1" width="1" fill="#000"/><rect x="16" y="30" height="1" width="1" fill="#000"/><rect x="19" y="30" height="1" width="1" fill="#000"/><rect x="52" y="30" height="1" width="2" fill="#000"/><rect x="58" y="30" height="1" width="1" fill="#000"/><rect x="2" y="31" height="5" width="1" fill="#000"/><rect x="4" y="31" height="3" width="1" fill="#000"/><rect x="7" y="31" height="1" width="1" fill="#000"/><rect x="12" y="31" height="1" width="1" fill="#000"/><rect x="17" y="31" height="3" width="1" fill="#000"/><rect x="47" y="31" height="1" width="1" fill="#000"/><rect x="49" y="31" height="5" width="1" fill="#000"/><rect x="53" y="31" height="4" width="1" fill="#000"/><rect x="55" y="31" height="1" width="1" fill="#000"/><rect x="1" y="32" height="1" width="1" fill="#000"/><rect x="3" y="32" height="1" width="1" fill="#000"/><rect x="10" y="32" height="2" width="1" fill="#000"/><rect x="14" y="32" height="2" width="1" fill="#000"/><rect x="19" y="32" height="1" width="1" fill="#000"/><rect x="44" y="32" height="1" width="3" fill="#000"/><rect x="50" y="32" height="1" width="1" fill="#000"/><rect x="52" y="32" height="1" width="1" fill="#000"/><rect x="60" y="32" height="2" width="1" fill="#000"/><rect x="6" y="33" height="1" width="3" fill="#000"/><rect x="12" y="33" height="1" width="2" fill="#000"/><rect x="16" y="33" height="1" width="1" fill="#000"/><rect x="43" y="33" height="3" width="1" fill="#000"/><rect x="45" y="33" height="1" width="1" fill="#000"/><rect x="51" y="33" height="6" width="1" fill="#000"/><rect x="54" y="33" height="1" width="3" fill="#000"/><rect x="6" y="34" height="2" width="1" fill="#000"/><rect x="8" y="34" height="2" width="1" fill="#000"/><rect x="15" y="34" height="2" width="1" fill="#000"/><rect x="46" y="34" height="2" width="1" fill="#000"/><rect x="50" y="34" height="2" width="1" fill="#000"/><rect x="56" y="34" height="2" width="1" fill="#000"/><rect x="58" y="34" height="1" width="2" fill="#000"/><rect x="3" y="35" height="2" width="3" fill="#000"/><rect x="7" y="35" height="1" width="1" fill="#000"/><rect x="10" y="35" height="1" width="4" fill="#000"/><rect x="16" y="35" height="1" width="2" fill="#000"/><rect x="19" y="35" height="3" width="1" fill="#000"/><rect x="45" y="35" height="1" width="1" fill="#000"/><rect x="47" y="35" height="1" width="2" fill="#000"/><rect x="52" y="35" height="1" width="1" fill="#000"/><rect x="54" y="35" height="1" width="1" fill="#000"/><rect x="1" y="36" height="2" width="1" fill="#000"/><rect x="9" y="36" height="4" width="1" fill="#000"/><rect x="11" y="36" height="1" width="4" fill="#000"/><rect x="17" y="36" height="1" width="2" fill="#000"/><rect x="44" y="36" height="1" width="1" fill="#000"/><rect x="47" y="36" height="1" width="1" fill="#000"/><rect x="53" y="36" height="2" width="1" fill="#000"/><rect x="55" y="36" height="2" width="1" fill="#000"/><rect x="59" y="36" height="1" width="2" fill="#000"/><rect x="4" y="37" height="1" width="4" fill="#000"/><rect x="10" y="37" height="1" width="1" fill="#000"/><rect x="12" y="37" height="1" width="2" fill="#000"/><rect x="43" y="37" height="2" width="1" fill="#000"/><rect x="45" y="37" height="1" width="2" fill="#000"/><rect x="49" y="37" height="1" width="2" fill="#000"/><rect x="54" y="37" height="1" width="1" fill="#000"/><rect x="56" y="37" height="1" width="2" fill="#000"/><rect x="61" y="37" height="1" width="1" fill="#000"/><rect x="3" y="38" height="3" width="3" fill="#000"/><rect x="8" y="38" height="3" width="1" fill="#000"/><rect x="12" y="38" height="1" width="1" fill="#000"/><rect x="15" y="38" height="3" width="2" fill="#000"/><rect x="18" y="38" height="1" width="1" fill="#000"/><rect x="44" y="38" height="1" width="1" fill="#000"/><rect x="46" y="38" height="2" width="1" fill="#000"/><rect x="48" y="38" height="1" width="2" fill="#000"/><rect x="57" y="38" height="1" width="2" fill="#000"/><rect x="7" y="39" height="1" width="1" fill="#000"/><rect x="10" y="39" height="7" width="1" fill="#000"/><rect x="13" y="39" height="1" width="1" fill="#000"/><rect x="17" y="39" height="4" width="1" fill="#000"/><rect x="19" y="39" height="3" width="1" fill="#000"/><rect x="45" y="39" height="1" width="1" fill="#000"/><rect x="47" y="39" height="1" width="2" fill="#000"/><rect x="52" y="39" height="1" width="2" fill="#000"/><rect x="56" y="39" height="1" width="1" fill="#000"/><rect x="58" y="39" height="1" width="1" fill="#000"/><rect x="1" y="40" height="1" width="2" fill="#000"/><rect x="6" y="40" height="1" width="1" fill="#000"/><rect x="11" y="40" height="1" width="2" fill="#000"/><rect x="14" y="40" height="1" width="1" fill="#000"/><rect x="18" y="40" height="1" width="1" fill="#000"/><rect x="48" y="40" height="3" width="1" fill="#000"/><rect x="52" y="40" height="1" width="1" fill="#000"/><rect x="57" y="40" height="3" width="1" fill="#000"/><rect x="59" y="40" height="1" width="1" fill="#000"/><rect x="61" y="40" height="2" width="1" fill="#000"/><rect x="2" y="41" height="1" width="3" fill="#000"/><rect x="7" y="41" height="1" width="1" fill="#000"/><rect x="9" y="41" height="1" width="1" fill="#000"/><rect x="15" y="41" height="1" width="1" fill="#000"/><rect x="45" y="41" height="1" width="2" fill="#000"/><rect x="49" y="41" height="1" width="2" fill="#000"/><rect x="53" y="41" height="3" width="1" fill="#000"/><rect x="55" y="41" height="1" width="2" fill="#000"/><rect x="60" y="41" height="2" width="1" fill="#000"/><rect x="2" y="42" height="1" width="2" fill="#000"/><rect x="5" y="42" height="1" width="1" fill="#000"/><rect x="12" y="42" height="3" width="1" fill="#000"/><rect x="16" y="42" height="1" width="1" fill="#000"/><rect x="43" y="42" height="3" width="1" fill="#000"/><rect x="46" y="42" height="1" width="1" fill="#000"/><rect x="51" y="42" height="2" width="2" fill="#000"/><rect x="3" y="43" height="2" width="1" fill="#000"/><rect x="7" y="43" height="1" width="1" fill="#000"/><rect x="9" y="43" height="1" width="1" fill="#000"/><rect x="11" y="43" height="1" width="1" fill="#000"/><rect x="13" y="43" height="1" width="3" fill="#000"/><rect x="20" y="43" height="1" width="3" fill="#000"/><rect x="25" y="43" height="2" width="1" fill="#000"/><rect x="28" y="43" height="1" width="2" fill="#000"/><rect x="31" y="43" height="1" width="5" fill="#000"/><rect x="37" y="43" height="1" width="6" fill="#000"/><rect x="44" y="43" height="1" width="2" fill="#000"/><rect x="47" y="43" height="3" width="1" fill="#000"/><rect x="49" y="43" height="1" width="1" fill="#000"/><rect x="56" y="43" height="1" width="1" fill="#000"/><rect x="58" y="43" height="1" width="1" fill="#000"/><rect x="1" y="44" height="1" width="2" fill="#000"/><rect x="5" y="44" height="2" width="2" fill="#000"/><rect x="8" y="44" height="2" width="1" fill="#000"/><rect x="13" y="44" height="5" width="1" fill="#000"/><rect x="15" y="44" height="1" width="3" fill="#000"/><rect x="21" y="44" height="1" width="2" fill="#000"/><rect x="24" y="44" height="2" width="1" fill="#000"/><rect x="26" y="44" height="2" width="1" fill="#000"/><rect x="28" y="44" height="1" width="1" fill="#000"/><rect x="34" y="44" height="2" width="3" fill="#000"/><rect x="41" y="44" height="1" width="1" fill="#000"/><rect x="46" y="44" height="2" width="1" fill="#000"/><rect x="55" y="44" height="2" width="1" fill="#000"/><rect x="59" y="44" height="1" width="1" fill="#000"/><rect x="61" y="44" height="1" width="1" fill="#000"/><rect x="2" y="45" height="2" width="1" fill="#000"/><rect x="7" y="45" height="1" width="1" fill="#000"/><rect x="16" y="45" height="1" width="2" fill="#000"/><rect x="19" y="45" height="3" width="1" fill="#000"/><rect x="21" y="45" height="1" width="1" fill="#000"/><rect x="27" y="45" height="1" width="1" fill="#000"/><rect x="29" y="45" height="2" width="1" fill="#000"/><rect x="32" y="45" height="1" width="1" fill="#000"/><rect x="39" y="45" height="1" width="2" fill="#000"/><rect x="45" y="45" height="1" width="1" fill="#000"/><rect x="48" y="45" height="1" width="2" fill="#000"/><rect x="53" y="45" height="3" width="1" fill="#000"/><rect x="58" y="45" height="3" width="1" fill="#000"/><rect x="1" y="46" height="2" width="1" fill="#000"/><rect x="4" y="46" height="1" width="1" fill="#000"/><rect x="6" y="46" height="2" width="1" fill="#000"/><rect x="9" y="46" height="5" width="1" fill="#000"/><rect x="12" y="46" height="1" width="1" fill="#000"/><rect x="14" y="46" height="1" width="2" fill="#000"/><rect x="17" y="46" height="1" width="2" fill="#000"/><rect x="23" y="46" height="2" width="1" fill="#000"/><rect x="31" y="46" height="1" width="1" fill="#000"/><rect x="35" y="46" height="2" width="1" fill="#000"/><rect x="38" y="46" height="1" width="2" fill="#000"/><rect x="42" y="46" height="1" width="3" fill="#000"/><rect x="49" y="46" height="8" width="1" fill="#000"/><rect x="51" y="46" height="1" width="2" fill="#000"/><rect x="54" y="46" height="1" width="1" fill="#000"/><rect x="56" y="46" height="1" width="2" fill="#000"/><rect x="60" y="46" height="3" width="1" fill="#000"/><rect x="7" y="47" height="1" width="1" fill="#000"/><rect x="10" y="47" height="3" width="2" fill="#000"/><rect x="14" y="47" height="2" width="1" fill="#000"/><rect x="16" y="47" height="2" width="1" fill="#000"/><rect x="20" y="47" height="1" width="2" fill="#000"/><rect x="25" y="47" height="1" width="1" fill="#000"/><rect x="28" y="47" height="2" width="1" fill="#000"/><rect x="30" y="47" height="1" width="1" fill="#000"/><rect x="32" y="47" height="1" width="2" fill="#000"/><rect x="37" y="47" height="1" width="2" fill="#000"/><rect x="41" y="47" height="1" width="1" fill="#000"/><rect x="44" y="47" height="1" width="1" fill="#000"/><rect x="52" y="47" height="2" width="1" fill="#000"/><rect x="57" y="47" height="1" width="1" fill="#000"/><rect x="5" y="48" height="2" width="1" fill="#000"/><rect x="21" y="48" height="1" width="1" fill="#000"/><rect x="24" y="48" height="3" width="1" fill="#000"/><rect x="26" y="48" height="2" width="2" fill="#000"/><rect x="31" y="48" height="1" width="2" fill="#000"/><rect x="34" y="48" height="1" width="1" fill="#000"/><rect x="36" y="48" height="1" width="1" fill="#000"/><rect x="42" y="48" height="1" width="2" fill="#000"/><rect x="45" y="48" height="1" width="3" fill="#000"/><rect x="50" y="48" height="1" width="1" fill="#000"/><rect x="56" y="48" height="1" width="1" fill="#000"/><rect x="59" y="48" height="3" width="1" fill="#000"/><rect x="61" y="48" height="2" width="1" fill="#000"/><rect x="1" y="49" height="1" width="1" fill="#000"/><rect x="3" y="49" height="1" width="1" fill="#000"/><rect x="6" y="49" height="1" width="3" fill="#000"/><rect x="18" y="49" height="1" width="2" fill="#000"/><rect x="25" y="49" height="1" width="1" fill="#000"/><rect x="30" y="49" height="2" width="1" fill="#000"/><rect x="35" y="49" height="1" width="1" fill="#000"/><rect x="37" y="49" height="3" width="1" fill="#000"/><rect x="39" y="49" height="3" width="1" fill="#000"/><rect x="42" y="49" height="5" width="1" fill="#000"/><rect x="45" y="49" height="5" width="1" fill="#000"/><rect x="48" y="49" height="3" width="1" fill="#000"/><rect x="51" y="49" height="4" width="1" fill="#000"/><rect x="54" y="49" height="1" width="2" fill="#000"/><rect x="57" y="49" height="9" width="1" fill="#000"/><rect x="2" y="50" height="1" width="1" fill="#000"/><rect x="6" y="50" height="2" width="1" fill="#000"/><rect x="12" y="50" height="1" width="1" fill="#000"/><rect x="20" y="50" height="1" width="3" fill="#000"/><rect x="26" y="50" height="1" width="1" fill="#000"/><rect x="29" y="50" height="2" width="1" fill="#000"/><rect x="31" y="50" height="1" width="1" fill="#000"/><rect x="36" y="50" height="1" width="1" fill="#000"/><rect x="40" y="50" height="1" width="2" fill="#000"/><rect x="43" y="50" height="1" width="1" fill="#000"/><rect x="46" y="50" height="6" width="1" fill="#000"/><rect x="50" y="50" height="1" width="1" fill="#000"/><rect x="52" y="50" height="3" width="1" fill="#000"/><rect x="54" y="50" height="1" width="1" fill="#000"/><rect x="58" y="50" height="2" width="1" fill="#000"/><rect x="3" y="51" height="1" width="3" fill="#000"/><rect x="7" y="51" height="1" width="2" fill="#000"/><rect x="10" y="51" height="1" width="2" fill="#000"/><rect x="14" y="51" height="1" width="1" fill="#000"/><rect x="16" y="51" height="1" width="3" fill="#000"/><rect x="23" y="51" height="1" width="1" fill="#000"/><rect x="25" y="51" height="4" width="1" fill="#000"/><rect x="27" y="51" height="2" width="1" fill="#000"/><rect x="32" y="51" height="1" width="1" fill="#000"/><rect x="35" y="51" height="1" width="1" fill="#000"/><rect x="47" y="51" height="3" width="1" fill="#000"/><rect x="56" y="51" height="3" width="1" fill="#000"/><rect x="60" y="51" height="1" width="1" fill="#000"/><rect x="1" y="52" height="2" width="3" fill="#000"/><rect x="5" y="52" height="1" width="1" fill="#000"/><rect x="9" y="52" height="1" width="1" fill="#000"/><rect x="11" y="52" height="1" width="1" fill="#000"/><rect x="15" y="52" height="1" width="1" fill="#000"/><rect x="20" y="52" height="1" width="2" fill="#000"/><rect x="24" y="52" height="2" width="1" fill="#000"/><rect x="28" y="52" height="1" width="1" fill="#000"/><rect x="30" y="52" height="2" width="1" fill="#000"/><rect x="34" y="52" height="8" width="1" fill="#000"/><rect x="36" y="52" height="2" width="1" fill="#000"/><rect x="40" y="52" height="2" width="2" fill="#000"/><rect x="44" y="52" height="1" width="1" fill="#000"/><rect x="50" y="52" height="2" width="1" fill="#000"/><rect x="55" y="52" height="2" width="1" fill="#000"/><rect x="61" y="52" height="2" width="1" fill="#000"/><rect x="4" y="53" height="1" width="1" fill="#000"/><rect x="7" y="53" height="1" width="1" fill="#000"/><rect x="10" y="53" height="1" width="1" fill="#000"/><rect x="17" y="53" height="1" width="2" fill="#000"/><rect x="23" y="53" height="4" width="1" fill="#000"/><rect x="29" y="53" height="5" width="1" fill="#000"/><rect x="31" y="53" height="1" width="3" fill="#000"/><rect x="37" y="53" height="1" width="1" fill="#000"/><rect x="39" y="53" height="2" width="1" fill="#000"/><rect x="43" y="53" height="3" width="1" fill="#000"/><rect x="48" y="53" height="6" width="1" fill="#000"/><rect x="53" y="53" height="1" width="2" fill="#000"/><rect x="9" y="54" height="1" width="1" fill="#000"/><rect x="11" y="54" height="1" width="5" fill="#000"/><rect x="20" y="54" height="1" width="3" fill="#000"/><rect x="26" y="54" height="2" width="2" fill="#000"/><rect x="33" y="54" height="7" width="1" fill="#000"/><rect x="35" y="54" height="2" width="1" fill="#000"/><rect x="41" y="54" height="1" width="1" fill="#000"/><rect x="44" y="54" height="1" width="1" fill="#000"/><rect x="53" y="54" height="4" width="1" fill="#000"/><rect x="1" y="55" height="1" width="7" fill="#000"/><rect x="10" y="55" height="3" width="1" fill="#000"/><rect x="12" y="55" height="1" width="1" fill="#000"/><rect x="16" y="55" height="2" width="1" fill="#000"/><rect x="19" y="55" height="1" width="1" fill="#000"/><rect x="24" y="55" height="2" width="1" fill="#000"/><rect x="31" y="55" height="1" width="1" fill="#000"/><rect x="38" y="55" height="1" width="1" fill="#000"/><rect x="47" y="55" height="2" width="1" fill="#000"/><rect x="49" y="55" height="3" width="1" fill="#000"/><rect x="55" y="55" height="1" width="1" fill="#000"/><rect x="59" y="55" height="2" width="1" fill="#000"/><rect x="1" y="56" height="6" width="1" fill="#000"/><rect x="7" y="56" height="6" width="1" fill="#000"/><rect x="11" y="56" height="1" width="1" fill="#000"/><rect x="13" y="56" height="2" width="1" fill="#000"/><rect x="17" y="56" height="1" width="2" fill="#000"/><rect x="20" y="56" height="2" width="1" fill="#000"/><rect x="22" y="56" height="2" width="1" fill="#000"/><rect x="28" y="56" height="1" width="1" fill="#000"/><rect x="36" y="56" height="1" width="2" fill="#000"/><rect x="40" y="56" height="3" width="1" fill="#000"/><rect x="42" y="56" height="1" width="1" fill="#000"/><rect x="45" y="56" height="3" width="1" fill="#000"/><rect x="52" y="56" height="1" width="1" fill="#000"/><rect x="61" y="56" height="3" width="1" fill="#000"/><rect x="3" y="57" height="3" width="3" fill="#000"/><rect x="9" y="57" height="1" width="1" fill="#000"/><rect x="12" y="57" height="2" width="1" fill="#000"/><rect x="14" y="57" height="1" width="1" fill="#000"/><rect x="18" y="57" height="1" width="2" fill="#000"/><rect x="26" y="57" height="2" width="1" fill="#000"/><rect x="30" y="57" height="1" width="3" fill="#000"/><rect x="35" y="57" height="3" width="1" fill="#000"/><rect x="37" y="57" height="1" width="2" fill="#000"/><rect x="43" y="57" height="3" width="1" fill="#000"/><rect x="51" y="57" height="5" width="1" fill="#000"/><rect x="54" y="57" height="1" width="3" fill="#000"/><rect x="11" y="58" height="2" width="1" fill="#000"/><rect x="15" y="58" height="1" width="1" fill="#000"/><rect x="17" y="58" height="2" width="1" fill="#000"/><rect x="19" y="58" height="2" width="1" fill="#000"/><rect x="24" y="58" height="2" width="2" fill="#000"/><rect x="27" y="58" height="1" width="1" fill="#000"/><rect x="31" y="58" height="4" width="2" fill="#000"/><rect x="36" y="58" height="1" width="2" fill="#000"/><rect x="39" y="58" height="1" width="1" fill="#000"/><rect x="41" y="58" height="1" width="2" fill="#000"/><rect x="50" y="58" height="2" width="1" fill="#000"/><rect x="52" y="58" height="2" width="1" fill="#000"/><rect x="56" y="58" height="1" width="1" fill="#000"/><rect x="59" y="58" height="1" width="1" fill="#000"/><rect x="10" y="59" height="3" width="1" fill="#000"/><rect x="13" y="59" height="1" width="1" fill="#000"/><rect x="20" y="59" height="1" width="4" fill="#000"/><rect x="29" y="59" height="1" width="1" fill="#000"/><rect x="42" y="59" height="1" width="1" fill="#000"/><rect x="46" y="59" height="1" width="1" fill="#000"/><rect x="53" y="59" height="2" width="2" fill="#000"/><rect x="60" y="59" height="3" width="1" fill="#000"/><rect x="9" y="60" height="1" width="1" fill="#000"/><rect x="12" y="60" height="1" width="1" fill="#000"/><rect x="16" y="60" height="1" width="1" fill="#000"/><rect x="20" y="60" height="1" width="3" fill="#000"/><rect x="24" y="60" height="1" width="1" fill="#000"/><rect x="30" y="60" height="1" width="1" fill="#000"/><rect x="37" y="60" height="1" width="3" fill="#000"/><rect x="48" y="60" height="2" width="2" fill="#000"/><rect x="57" y="60" height="2" width="1" fill="#000"/><rect x="59" y="60" height="2" width="1" fill="#000"/><rect x="2" y="61" height="1" width="5" fill="#000"/><rect x="13" y="61" height="1" width="3" fill="#000"/><rect x="17" y="61" height="1" width="1" fill="#000"/><rect x="19" y="61" height="1" width="2" fill="#000"/><rect x="22" y="61" height="1" width="2" fill="#000"/><rect x="25" y="61" height="1" width="4" fill="#000"/><rect x="37" y="61" height="1" width="1" fill="#000"/><rect x="40" y="61" height="1" width="1" fill="#000"/><rect x="43" y="61" height="1" width="1" fill="#000"/><rect x="47" y="61" height="1" width="1" fill="#000"/><rect x="61" y="61" height="1" width="1" fill="#000"/><image xlink:href="kimi.png" x="21" y="21" width="21" height="21"/></svg>